<svg id="Layer_1" xmlns="http://www.w3.org/2000/svg" viewBox="0 0 800.9 800.9"><style>.st0{fill:#fe7e17}.st1{fill:#333}.st2{opacity:.25}.st3{fill:#fff}.st4{opacity:.3}</style><path class="st0" d="M299.5 771.3C282.4 720 265.1 668.7 248 617.5c-15.2-45.5-30-91.3-45.8-136.5-3.9-11.1 2.1-16.6 4.8-23 10.5-24.6 22.2-48.1 33.2-72.2 19-41.5 37.8-83.2 56.8-124.7 9.5-20.7 19.1-41.1 28.8-61.6 3.7-7.9 21.7-13.4 27-8.1 1.3 1.3 2.4 4.5 2.2 6.6-2.8 34.2-5.7 68.4-8.9 102.5-3.5 36.4-7.8 72.6-11.1 109-2.1 23-2.2 46.4-4.3 69.4-2.8 30.3-7.2 60.3-10.2 90.6-2 20.2-2.2 40.6-3.8 60.9-1.5 19-4 37.9-5.6 56.9-2 23.3-3.4 46.8-5.4 70.1-.4 5.1-2.2 9.9-3.3 14.9-.9-.6-1.9-.8-2.9-1z"/><path class="st1" d="M346.2 201.4l-23.1 3.9c-52.1 8.8-103.4 17.4-156.4 26.4 2-3.7 2.6-6.2 4.2-7.7 44.5-40.3 89.1-80.6 133.6-120.8 29.9-27 59.8-54 89.8-80.9 3.6-3.3 7.4-6.6 11.6-9 1.7-.9 5.6-.3 7 1.1 8 8.3 15.5 17.1 23.3 25.7 26.8 29.6 53.7 59.1 80.4 88.8 10 11.1 20.5 21.8 28.8 34.1 4 6 4 15 4.9 22.7 2.6 23.6 4.6 47.2 7.2 70.8 2.6 22.8 5.8 45.4 8.5 68.2 2.6 22.1 4.9 44.3 7.4 66.4 3.2 28.6 6.5 57.1 9.9 85.7 2.8 23.7 5.6 47.4 8.5 71.1 4.3 36 8.9 72 13.1 108.1 3.6 31.3 6.8 62.6 9.9 93.9.7 6.9 3.1 18.3.2 20.1-6.1 3.6-15.2 2.7-23.1 2.7-98.6.1-197.2.1-295.8.1-15.8 0-17.8-2.8-15.6-18 4.1-29.2 7.4-58.5 11.2-87.7 3.6-28.1 7.7-56.1 11.1-84.2 3.5-30.1 6.2-60.3 9.6-90.4 4.2-36.1 8.8-72.2 13.2-108.2 3.3-27.4 6.4-54.8 9.7-82.3 3.6-29.3 7.4-58.5 11-87.7.2-3.7-.1-7.5-.1-12.9z"/><path class="st2" d="M460 303.4L314.6 642.8l231.9-229.6"/><path class="st3" d="M460 303.4l-134.5 314L540 405"/><path class="st4" d="M323 205.3l224.4-38.2c1.2 4.2 1.9 8.8 2.3 13.5l-229.2 29.9 2.5-5.2z"/></svg>