<svg id="Layer_1" xmlns="http://www.w3.org/2000/svg" viewBox="0 0 34.5 22.9"><style>.st0{fill:none}.st1{fill:#383838}.st2{fill:none;stroke:#303030;stroke-width:.8;stroke-linecap:round;stroke-linejoin:round;stroke-miterlimit:10}.st3{fill:#5b5b5b}.st4{fill:#303030}</style><path class="st0" d="M32 22.3H2.7c-1.2 0-2.2-1-2.2-2.2V2.7C.5 1.5 1.5.5 2.7.5H32c1.2 0 2.2 1 2.2 2.2v17.4c0 1.2-1 2.2-2.2 2.2z"/><path class="st1" d="M.5 6.2h33.7v3.4H.5z"/><path class="st2" d="M32 22.3H2.7c-1.2 0-2.2-1-2.2-2.2V2.7C.5 1.5 1.5.5 2.7.5H32c1.2 0 2.2 1 2.2 2.2v17.4c0 1.2-1 2.2-2.2 2.2zM.5 6.2h33.4m0 3.4H.7m2.9 8.7h8.3m-8.3-2.7h3.6"/><path class="st3" d="M31.1 16.4c0 1.6-1.3 3-3 3-.8 0-1.5-.3-2-.8-.1-.1-.7.1-1-.1-.9-.5-1.8-1.5-1.8-2.1 0-.7.9-1.8 1.7-2.3.1-.1.9.3 1 .2.5-.5 1.3-.9 2.1-.9 1.6.1 3 1.4 3 3z"/><path class="st4" d="M28.2 13.3c-.8 0-1.6.3-2.1.8-.5-.4-1.1-.6-1.8-.6-1.6 0-2.9 1.3-2.9 2.9 0 1.6 1.3 2.9 2.9 2.9.7 0 1.3-.2 1.8-.6.6.5 1.3.8 2.1.8 1.8 0 3.2-1.4 3.2-3.2-.1-1.6-1.5-3-3.2-3zm0 5.8c-.7 0-1.3-.2-1.7-.6h-1.1V18h1.5c.1-.1.1-.3.2-.4H25v-.5h2.3c0-.1 0-.3.1-.4h-2.5v-.5h2.5c0-.1 0-.3-.1-.4H25v-.5h2c-.1-.1-.1-.3-.2-.4h-1.5v-.5h1s.1 0 .1.1c.5-.4 1.1-.7 1.8-.7 1.5 0 2.7 1.2 2.7 2.7-.1 1.4-1.3 2.6-2.7 2.6z"/><circle cx="24.3" cy="16.4" r="2.3"/></svg>