<svg xmlns="http://www.w3.org/2000/svg" viewBox="0 0 172.7 140.9"><path d="M10.8 109.7h152.9V9.9H10.8c-1.6 0-1.8.6-1.8 1.2v96.5c0 .9.8 2.1 1.8 2.1zm.7-97.3h149.6v2.8H11.5v-2.8zm0 5.3h149.6v89.5H11.5V17.7z"/><circle cx="86.3" cy="121.9" r="2.6"/><path d="M170.5 1H2.1C.6 1 .1 2.4.1 3.5v123.1c0 1.3.6 2.6 2 2.6H62v8.1H46.1v2.5h80.4v-2.5h-15.9v-8.1h59.9c1.4 0 2-1.3 2-2.6V3.5c0-1.1-.5-2.5-2-2.5zM108 137.2H64.6v-8.1h43.5v8.1h-.1zm62-10.6H2.6v-9.8h167.3l.1 9.8zm0-12.4H2.6V3.6h167.3l.1 110.6z"/><path d="M102.6 91.8c-13 0-24.3-8.9-27.4-21.5-1.8-7.3-.6-14.9 3.3-21.4s10.1-11 17.4-12.8c2.2-.5 4.5-.8 6.8-.8 13 0 24.3 8.9 27.4 21.5 1.8 7.3.6 14.9-3.3 21.4s-10.1 11-17.4 12.8c-2.3.5-4.5.8-6.8.8zm0-54c-2.1 0-4.1.3-6.2.7-6.7 1.6-12.3 5.8-15.9 11.7-3.6 5.9-4.6 12.8-3 19.5 2.8 11.6 13.1 19.6 25 19.6 2.1 0 4.1-.3 6.2-.7 6.7-1.6 12.3-5.8 15.9-11.7s4.6-12.8 3-19.5c-2.8-11.6-13.1-19.6-25-19.6z"/><path d="M102.6 87.1c-10.9 0-20.2-7.4-22.8-17.9-3.1-12.6 4.6-25.4 17.2-28.5 1.8-.5 3.7-.7 5.6-.7 10.9 0 20.2 7.4 22.8 17.9 3.1 12.6-4.6 25.4-17.2 28.5-1.8.4-3.7.7-5.6.7zm0-44.6c-1.7 0-3.4.2-5 .6-11.3 2.8-18.2 14.2-15.4 25.4 2.3 9.4 10.7 16 20.4 16 1.7 0 3.4-.2 5-.6 11.3-2.8 18.2-14.2 15.4-25.4-2.3-9.4-10.7-16-20.4-16z"/><path d="M102.7 80.9c-5 0-10-2-13.8-5.9l1.8-1.7c6.3 6.6 16.8 6.8 23.4.5l1.7 1.8c-3.6 3.6-8.4 5.3-13.1 5.3zm25-7.3c-.9 2.2-2 4.3-3.4 6.1l29.7 18 3.6-6-29.9-18.1z"/><path d="M154.4 99.4l-32-19.4.8-1.1c1.3-1.8 2.4-3.8 3.3-5.9l.5-1.4 32.2 19.5-4.8 8.3zM126 79.3L153.5 96l2.3-3.9-27.5-16.7c-.7 1.4-1.4 2.7-2.3 3.9zm-21.8-19.8c-.5-2.5-3-4.2-5.5-3.7-.7.1-1.3.4-1.8.8L86.3 49c-.7.5-1.3 1.1-1.9 1.7l10.9 7.8c-.4.9-.5 1.8-.3 2.8.5 2.5 3 4.2 5.5 3.7 2.5-.4 4.2-2.9 3.7-5.5zm-4.1 3.6c-1.5.3-2.9-.7-3.2-2.1-.3-1.5.7-2.9 2.1-3.2 1.5-.3 2.9.7 3.2 2.1.3 1.5-.6 2.9-2.1 3.2zM66.8 32.4c-.5-2.5-3-4.2-5.5-3.7s-4.2 3-3.7 5.5c.1.7.5 1.4.9 2l-15.2 19c-.7-.2-1.5-.3-2.3-.2-.8.2-1.5.5-2.1 1l-13.7-5.8c.1-.5.1-1 0-1.6-.5-2.5-3-4.2-5.5-3.7s-4.2 3-3.7 5.5c.2.9.6 1.7 1.2 2.3L9.9 63.4v4.4L19.3 54c.7.2 1.4.3 2.2.1 1.1-.2 2.1-.8 2.7-1.7L37.5 58c-.3.8-.3 1.6-.2 2.4.5 2.5 3 4.2 5.5 3.7s4.2-3 3.7-5.5c-.2-.8-.6-1.6-1.1-2.2l15.1-18.9c.8.3 1.7.4 2.6.2.8-.2 1.5-.5 2.1-1.1l15.4 11.1 1.8-1.8-15.8-11.2c.2-.7.3-1.5.2-2.3zM22.2 51.7c-.3.3-.7.5-1.2.6-.2 0-.4.1-.5.1-.2 0-.4 0-.6-.1-.1 0-.1 0-.2-.1-.1 0-.3-.1-.4-.2-.1 0-.1-.1-.2-.1-.1-.1-.2-.2-.3-.2l-.1-.1-.4-.4c-.2-.3-.3-.6-.4-1-.3-1.5.7-2.9 2.1-3.2 1.5-.3 2.9.7 3.2 2.1v.3c0 .9-.3 1.7-1 2.3zm20.2 10.6c-1.5.3-2.9-.7-3.2-2.1-.1-.4-.1-.8.1-1.2l.3-.6c.2-.4.6-.7 1-1 .2-.1.4-.2.7-.3h.1c.2 0 .4-.1.6 0 .2 0 .4 0 .6.1h.1c.1 0 .3.1.4.2l.1.1c.1.1.3.2.4.3 0 0 .1 0 .1.1.2.1.3.3.4.5.2.3.3.6.4 1 .3 1.2-.7 2.6-2.1 2.9zm22.4-28.8c-.1.9-.6 1.7-1.3 2.1-.3.1-.5.3-.8.3-.3.1-.6.1-.9 0-.9-.1-1.6-.7-2-1.5-.1-.2-.2-.4-.3-.7-.3-1.5.7-2.9 2.1-3.2 1.5-.3 2.9.7 3.2 2.1v.9z"/></svg>