<svg id="Layer_1" xmlns="http://www.w3.org/2000/svg" viewBox="0 0 138.5 105.9"><style>.st0,.st1{stroke:#000;stroke-miterlimit:10}.st0{opacity:.3;enable-background:new;fill:#5b5b5b}.st1{fill:none;stroke-linecap:round;stroke-linejoin:round}</style><path class="st0" d="M44.9 84.5h21v5h-21z"/><path class="st1" d="M89.7 84.6h-76c-6.6 0-12-5.4-12-12V13.7c0-6.6 5.4-12 12-12h83.8c6.6 0 12 5.4 12 12v22.5"/><path class="st1" d="M89.7 67.3h-76c-3.6 0-6.5-2.9-6.5-6.5V14.1c0-3.6 2.9-6.5 6.5-6.5h83.6c3.6 0 6.5 2.9 6.5 6.5v21.7"/><path class="st0" d="M7.2 16.1V14c0-3.6 2.9-6.5 6.5-6.5h83.6c3.6 0 6.5 2.9 6.5 6.5v2.1H7.2z"/><path class="st1" d="M7.2 16.1V14c0-3.6 2.9-6.5 6.5-6.5h83.6c3.6 0 6.5 2.9 6.5 6.5v2.1H7.2z"/><circle class="st0" cx="55.5" cy="76.2" r="3.6"/><circle class="st1" cx="55.5" cy="76.2" r="3.6"/><path class="st1" d="M66.1 84.8s-1.9 12.3 7.5 12.3h-36c9.4 0 7.3-12.2 7.3-12.2M14.5 22.5h36v13.4h-36zm41.8 1.7h30m-30 6h35m-35 4h30"/><path class="st0" d="M14.5 43.4h18v18h-18z"/><path class="st1" d="M14.5 43.4h18v18h-18zm24.5 0h18v18H39zm24.5 0h18v18h-18zm69.2 61.1H94.5c-2.7 0-4.8-2.2-4.8-4.8V41.1c0-2.7 2.2-4.8 4.8-4.8h38.1c2.7 0 4.8 2.2 4.8 4.8v58.6c.1 2.6-2.1 4.8-4.7 4.8z"/><path class="st1" d="M131 93.5H96.2c-1.7 0-3.1-1.4-3.1-3.1V43.3c0-1.7 1.4-3.1 3.1-3.1H131c1.7 0 3.1 1.4 3.1 3.1v47.1c.1 1.7-1.3 3.1-3.1 3.1z"/><circle class="st0" cx="115.4" cy="98.8" r="2.2"/><circle class="st1" cx="115.4" cy="98.8" r="2.2"/><path class="st0" d="M98.9 45.2h30.6v25.6H98.9z"/><path class="st1" d="M98.3 45.2h31.2v25.6H98.3zm1 33h24m-24 4h20"/></svg>