<?xml version="1.0" encoding="utf-8"?>
<!-- Generator: Adobe Illustrator 21.0.0, SVG Export Plug-In . SVG Version: 6.00 Build 0)  -->
<svg version="1.1" id="Layer_1" xmlns="http://www.w3.org/2000/svg" xmlns:xlink="http://www.w3.org/1999/xlink" x="0px" y="0px"
	 viewBox="0 0 200 200" style="enable-background:new 0 0 200 200;" xml:space="preserve">
<style type="text/css">
	.st0{stroke:#FFFFFF;stroke-miterlimit:10;}
</style>
<g>
	<path class="st0" d="M124.9,171.4v-14.6c0-0.8-0.3-1.6-0.9-2.2c-0.6-0.6-1.4-0.9-2.2-0.9H78.3c-0.8,0-1.6,0.3-2.2,0.9
		c-0.6,0.6-0.9,1.4-0.9,2.2v14.6l-17,9.4c-0.2,0.1-0.3,0.2-0.4,0.4c-0.1,0.2-0.2,0.4-0.2,0.6v2.1c0,0.3,0.1,0.6,0.3,0.8
		c0.2,0.2,0.5,0.3,0.8,0.3h82.7c0.3,0,0.6-0.1,0.8-0.3c0.2-0.2,0.3-0.5,0.3-0.8v-2.1c0-0.2-0.1-0.4-0.2-0.6
		c-0.1-0.2-0.3-0.3-0.4-0.4L124.9,171.4z"/>
	<path class="st0" d="M197.8,17.2c-1.5-1.5-3.4-2.2-5.3-2.2H7.5c-1.9,0-3.9,0.7-5.3,2.2C0.7,18.7,0,20.6,0,22.6v119.7
		c0,1.9,0.7,3.9,2.2,5.3c1.5,1.5,3.4,2.2,5.3,2.2h184.9c1.9,0,3.9-0.7,5.3-2.2c1.5-1.5,2.2-3.4,2.2-5.3V22.6
		C200,20.6,199.3,18.7,197.8,17.2z M100,146.6c-1.8,0-3.3-1.5-3.3-3.3s1.5-3.3,3.3-3.3c1.8,0,3.3,1.5,3.3,3.3S101.8,146.6,100,146.6
		z M187,136.8H13V28.1H187V136.8z"/>
	<g>
		<path class="st0" d="M41,126.5c-0.4,0-0.8,0.2-1.1,0.5c-0.3,0.3-0.5,0.7-0.5,1.1v1.2h16.8v-1.2c0-0.4-0.2-0.8-0.5-1.1
			c-0.3-0.3-0.7-0.5-1.1-0.5H41z"/>
		<path class="st0" d="M61.5,107.1c-0.4,0-0.8,0.2-1.1,0.5c-0.3,0.3-0.5,0.7-0.5,1.1v20.6h16.8v-20.6c0-0.4-0.2-0.8-0.5-1.1
			c-0.3-0.3-0.7-0.5-1.1-0.5H61.5z"/>
		<path class="st0" d="M82,99.2c-0.4,0-0.8,0.2-1.1,0.5c-0.3,0.3-0.5,0.7-0.5,1.1v28.6h16.8v-28.6c0-0.4-0.2-0.8-0.5-1.1
			c-0.3-0.3-0.7-0.5-1.1-0.5H82z"/>
		<path class="st0" d="M102.5,102.5c-0.4,0-0.8,0.1-1.1,0.5c-0.3,0.3-0.5,0.7-0.5,1.1v25.3h16.8V104c0-0.4-0.2-0.8-0.5-1.1
			c-0.3-0.3-0.7-0.5-1.1-0.5C116.2,102.5,102.5,102.5,102.5,102.5z"/>
		<path class="st0" d="M123,89.7c-0.4,0-0.8,0.2-1.1,0.5c-0.3,0.3-0.5,0.7-0.5,1.1v38.1h16.8V91.2c0-0.4-0.2-0.8-0.5-1.1
			c-0.3-0.3-0.7-0.5-1.1-0.5L123,89.7L123,89.7z"/>
		<path class="st0" d="M143.5,73.7c-0.4,0-0.8,0.2-1.1,0.5c-0.3,0.3-0.5,0.7-0.5,1.1v54.1h16.8V75.2c0-0.4-0.1-0.8-0.5-1.1
			c-0.3-0.3-0.7-0.5-1.1-0.5L143.5,73.7L143.5,73.7z"/>
		<path class="st0" d="M171.4,43.7c0.2-0.4,0.2-0.8-0.1-1.2c-0.3-0.3-0.7-0.5-1.1-0.4l-16.8,4.9c-0.3,0.1-0.6,0.3-0.7,0.7
			c-0.1,0.3,0,0.7,0.2,1l2,2.6L104.1,91L75.9,79.1l-47,44.6c-0.3,0.3-0.5,0.7-0.5,1.1c0,0.4,0.2,0.8,0.4,1.1l2.2,2.3
			c0.3,0.3,0.7,0.5,1.1,0.5c0.4,0,0.8-0.2,1.1-0.4l44-41.8L105,98.2l53.7-41.9l2,2.6c0.2,0.3,0.5,0.4,0.9,0.4c0.4,0,0.7-0.2,0.8-0.5
			L171.4,43.7z"/>
	</g>
</g>
</svg>
