<?xml version="1.0" encoding="utf-8"?>
<!-- Generator: Adobe Illustrator 21.0.2, SVG Export Plug-In . SVG Version: 6.00 Build 0)  -->
<svg version="1.1" id="Layer_1" xmlns="http://www.w3.org/2000/svg" xmlns:xlink="http://www.w3.org/1999/xlink" x="0px" y="0px"
	 viewBox="0 0 4930 834" style="enable-background:new 0 0 4930 834;" xml:space="preserve">
<style type="text/css">
	.st0{opacity:0.4;fill:#212121;}
</style>
<path class="st0" d="M0,1v834h4930V1H0z M2565.6,554.7h-50.6l-45.3-149.2c-0.9-2.3-1.7-4.9-2.5-7.7c-0.8-2.8-1.5-5.8-2.3-8.8
	c-0.8,3.1-1.5,6-2.3,8.8c-0.8,2.8-1.6,5.4-2.5,7.7l-45.9,149.2h-50.6l-74.4-240.8h46.9c4.8,0,8.9,1.1,12.1,3.3
	c3.2,2.2,5.4,5.1,6.4,8.8l33.1,125.6c1,4,2,8.3,3,13c1,4.7,2,9.6,3,14.6c2-10.4,4.4-19.6,7.3-27.6l39-125.6c1-3.1,3.1-5.9,6.4-8.3
	c3.2-2.5,7.2-3.7,11.8-3.7h16.5c4.8,0,8.8,1.1,11.7,3.4c3,2.3,5.2,5.2,6.8,8.7l38.7,125.6c2.9,7.7,5.3,16.5,7.3,26.3
	c0.9-5,1.8-9.6,2.7-14c0.9-4.4,1.9-8.5,2.9-12.3l33.1-125.6c0.9-3.2,3-6,6.3-8.4c3.3-2.4,7.3-3.6,11.9-3.6h44L2565.6,554.7z"/>
</svg>
