<?xml version="1.0" encoding="utf-8"?>
<!-- Generator: Adobe Illustrator 21.0.2, SVG Export Plug-In . SVG Version: 6.00 Build 0)  -->
<svg version="1.1" id="Layer_1" xmlns="http://www.w3.org/2000/svg" xmlns:xlink="http://www.w3.org/1999/xlink" x="0px" y="0px"
	 viewBox="0 0 194.6 145" style="enable-background:new 0 0 194.6 145;" xml:space="preserve">
<g id="New_Symbol">
</g>
<g id="New_Symbol_1_">
</g>
<g id="New_Symbol_1">
</g>
<g id="New_Symbol_9_2_">
</g>
<g id="New_Symbol_7">
</g>
<g id="New_Symbol_9_1_">
</g>
<g id="New_Symbol_9">
</g>
<g id="Nuevo_símbolo">
</g>
<g id="New_Symbol_10">
</g>
<g id="New_Symbol_12">
</g>
<g id="New_Symbol_14">
</g>
<g id="New_Symbol_15">
</g>
<g id="New_Symbol_16">
</g>
<g id="New_Symbol_17_1_">
</g>
<g id="New_Symbol_18">
</g>
<g id="New_Symbol_19">
</g>
<g id="New_Symbol_17">
</g>
<g>
	<path d="M28.3,95.9h138.5c1.3,0,2.5-1.1,2.5-2.4V3.9h-0.1c0-1-1.1-2-2.4-2H28.3c-1.3,0-2,0.8-2,2.1v89.4
		C26.3,94.8,27,95.9,28.3,95.9z M28.3,4c0-0.2-0.2-0.1,0-0.1h138.5c0.2,0,0.5-0.1,0.5,0.1v89.4h-0.1c0,0.2-0.2,0.4-0.4,0.4H28.3
		c-0.2,0,0-0.2,0-0.4V4z"/>
	<path d="M193.2,128l-0.1-0.4l-24.9-28.7H97.3H26.4L1.5,127.6l-0.1,0.3c-0.1,0.3-1.7,7.8,2,12.4c1.9,2.3,4.7,3.6,8.4,3.6h85.5h85.5
		c3.7,0,6.6-1.2,8.4-3.5C194.9,135.8,193.3,128.3,193.2,128z M27.3,100.9h70h70l23.9,27.5c-0.1,0.6-0.3,1.4-0.7,1.7
		c-1.4,1.4-4.7,1.8-5.9,1.8H97.1L10,131.7c-1.1,0.1-4.4-0.2-5.8-1.6c-0.4-0.4-0.6-1.1-0.7-1.6L27.3,100.9z M189.6,139.1
		c-1.5,1.8-3.8,2.8-6.8,2.8H97.3H11.8c-3.1,0-5.4-0.9-6.8-2.8c-1.7-2.1-2-5.2-2-7.5c1.9,1.6,5.1,2,6.4,2c0.3,0,0.5,0.2,0.6,0.2h87.5
		l87-0.2c0,0,0.3-0.1,0.6-0.1c1.3,0,4.5-0.2,6.4-1.8C191.7,134,191.3,137,189.6,139.1z"/>
	<path d="M148,108.9H46.5l-9.7,12.8h121.1L148,108.9z M47.5,110.9H147l6.8,8.8h-113L47.5,110.9z"/>
	<path d="M111.1,87.9h15.7h1.2h27.3V63.7c1-0.1,1.7-0.4,2.3-1.1c1.5-1.5,1.5-3.8,0-5.3c-0.6-0.6-1.4-1-2.4-1V44.1l0.4,0.4
		c-0.3,0.8-0.1,1.8,0.5,2.5c0.4,0.5,1,0.7,1.7,0.7c0.6,0,1.2-0.2,1.7-0.7c0.9-0.9,0.9-2.4,0-3.4c-0.6-0.6-1.6-0.8-2.5-0.5l-1.8-1.8
		V15.9h-25.9l-3.1-3.3c0.1-0.3,0.2-0.6,0.2-0.9c0-0.6-0.2-1.3-0.7-1.7c-0.9-0.9-2.5-0.9-3.4,0c-0.4,0.4-0.7,1-0.7,1.7
		s0.2,1.2,0.7,1.7c0.4,0.5,1,0.7,1.7,0.7c0.3,0,0.6,0.2,0.8,0.1l1.7,1.9h-12.2c-0.1-1-0.5-1.6-1-2.1c-1.4-1.4-3.9-1.3-5.3,0.1
		c-0.5,0.5-0.9,1-1,2H39.3v72H110h1.1V87.9z M156.9,44.4c0.3-0.3,0.6-0.4,1-0.4s0.7,0.1,1,0.4c0.5,0.5,0.5,1.4,0,2
		c-0.5,0.5-1.4,0.5-2,0C156.4,45.8,156.4,44.9,156.9,44.4z M125.1,12.5c-0.5,0.5-1.4,0.5-2,0c-0.3-0.3-0.4-0.6-0.4-1s0.1-0.7,0.4-1
		s0.6-0.4,1-0.4s0.7,0.1,1,0.4c0.3,0.3,0.4,0.6,0.4,1S125.3,12.3,125.1,12.5z M127.3,86.8c-9-0.3-15.8-6.9-16.1-15.9h9.2h1.2h1.4
		h1.2h3.2L127.3,86.8L127.3,86.8z M111.2,69.9c0.3-5,4.1-8.8,9.1-9.1v6.4v0.2v2.5H111.2z M126.9,69.6V70h-0.4
		C126.6,69.9,126.7,69.7,126.9,69.6z M124.3,69.9v-2.5v-0.5h2.5C126.6,68.9,125.3,69.7,124.3,69.9z M122.9,65.9h-1.6v-5.1
		c3,0.3,5.2,3.1,5.5,5.1H122.9z M121.5,67.4v-0.2h1.4v0.2H121.5z M122.9,68.6v1.3c-0.6-0.2-1.1-0.7-1.3-1.3H122.9z M127.3,62.8
		c-1-0.8-1.7-0.9-2.5-1.9h2.5V62.8z M154.3,86.9h-18.9c9-3,15.9-9.8,18.9-18.8V86.9z M128.3,86.8V71.1v-1.2v-2.8v-1.2v-5h23
		c0.1,1,0.5,1.2,1,1.8c0.4,0.4,1.1,0.7,1.7,0.9C152.4,76.5,141.3,86.5,128.3,86.8z M154.3,50.1c-1-4.1-2.5-8-4.5-11.6l4.5,4.5V50.1z
		 M154.3,16.9v23.2l-10-9.9c0.8-1.4,0.6-3.3-0.6-4.5c-1.2-1.2-3.1-1.2-4.5-0.4l-8.6-8.4C130.6,16.9,154.3,16.9,154.3,16.9z
		 M127.8,16.9l4.5,4.5c-3.6-2-7.5-3.5-11.6-4.5H127.8z M111.3,19.9c1-0.1,1.5-0.5,2.1-1c0.6-0.6,0.9-1.3,1-2.1
		c8,0.7,15.4,3.6,21.6,8.1l1.7,1.8c-0.3,0.6-0.5,1.2-0.5,1.8c0,1,0.4,1.9,1.1,2.6c0.7,0.7,1.6,1.1,2.6,1.1c0.7,0,1.3-0.2,1.8-0.5
		l3,3.1c4.5,6.2,7.4,13.6,8.1,21.7c-0.6,0.2-1.1,0.6-1.6,1.1c-0.6,0.6-1,1.4-1.1,2.4h-23.3h-1.2h-5.3h-1.2h-8.8V19.9z M111.3,60.9
		h4.8c-2.1,1-3.8,2.6-4.8,4.8V60.9z M111.3,76.7c2,4.6,5.3,8.2,9.9,10.2h-9.9V76.7z M40.3,16.7L40,16.9h57.9
		c-29.6,5-52.6,28.3-57.6,57.8V16.7z M107,16.8c0.1,0.8,0.6,1.5,1.2,2.1c0.5,0.5,1.1,0.9,2.1,1v39.7v1.2V70v1.2v15.7H39.8
		C40.1,49.9,69.8,18.6,107,16.8z"/>
</g>
</svg>
