<?xml version="1.0" encoding="utf-8"?>
<!-- Generator: Adobe Illustrator 21.0.2, SVG Export Plug-In . SVG Version: 6.00 Build 0)  -->
<svg version="1.1" id="Layer_1" xmlns="http://www.w3.org/2000/svg" xmlns:xlink="http://www.w3.org/1999/xlink" x="0px" y="0px"
	 viewBox="0 0 34.5 22.9" style="enable-background:new 0 0 34.5 22.9;" xml:space="preserve">
<style type="text/css">
	.st0{fill:none;}
	.st1{fill:#383838;}
	.st2{fill:none;stroke:#303030;stroke-width:0.8;stroke-linecap:round;stroke-linejoin:round;stroke-miterlimit:10;}
	.st3{fill:#5B5B5B;}
	.st4{fill:#303030;}
</style>
<g>
	<path class="st0" d="M32,22.3H2.7c-1.2,0-2.2-1-2.2-2.2V2.7c0-1.2,1-2.2,2.2-2.2H32c1.2,0,2.2,1,2.2,2.2v17.4
		C34.2,21.3,33.2,22.3,32,22.3z"/>
	<rect x="0.5" y="6.2" class="st1" width="33.7" height="3.4"/>
	<path class="st2" d="M32,22.3H2.7c-1.2,0-2.2-1-2.2-2.2V2.7c0-1.2,1-2.2,2.2-2.2H32c1.2,0,2.2,1,2.2,2.2v17.4
		C34.2,21.3,33.2,22.3,32,22.3z"/>
	<line class="st2" x1="0.5" y1="6.2" x2="33.9" y2="6.2"/>
	<line class="st2" x1="33.9" y1="9.6" x2="0.7" y2="9.6"/>
	<line class="st2" x1="3.6" y1="18.3" x2="11.9" y2="18.3"/>
	<line class="st2" x1="3.6" y1="15.6" x2="7.2" y2="15.6"/>
</g>
<g>
	<path class="st3" d="M31.1,16.4c0,1.6-1.3,3-3,3c-0.8,0-1.5-0.3-2-0.8c-0.1-0.1-0.7,0.1-1-0.1c-0.9-0.5-1.8-1.5-1.8-2.1
		c0-0.7,0.9-1.8,1.7-2.3c0.1-0.1,0.9,0.3,1,0.2c0.5-0.5,1.3-0.9,2.1-0.9C29.7,13.5,31.1,14.8,31.1,16.4z"/>
	<path class="st4" d="M28.2,13.3c-0.8,0-1.6,0.3-2.1,0.8c-0.5-0.4-1.1-0.6-1.8-0.6c-1.6,0-2.9,1.3-2.9,2.9c0,1.6,1.3,2.9,2.9,2.9
		c0.7,0,1.3-0.2,1.8-0.6c0.6,0.5,1.3,0.8,2.1,0.8c1.8,0,3.2-1.4,3.2-3.2C31.3,14.7,29.9,13.3,28.2,13.3z M28.2,19.1
		c-0.7,0-1.3-0.2-1.7-0.6l0,0h-1.1V18h1.5c0.1-0.1,0.1-0.3,0.2-0.4h-2.1v-0.5h2.3c0-0.1,0-0.3,0.1-0.4h-2.5v-0.5h2.5
		c0-0.1,0-0.3-0.1-0.4h-2.3v-0.5H27c-0.1-0.1-0.1-0.3-0.2-0.4h-1.5v-0.5h1c0,0,0.1,0,0.1,0.1c0.5-0.4,1.1-0.7,1.8-0.7
		c1.5,0,2.7,1.2,2.7,2.7C30.8,17.9,29.6,19.1,28.2,19.1z"/>
	<circle cx="24.3" cy="16.4" r="2.3"/>
</g>
</svg>
