<?xml version="1.0" encoding="utf-8"?>
<!-- Generator: Adobe Illustrator 21.0.2, SVG Export Plug-In . SVG Version: 6.00 Build 0)  -->
<svg version="1.1" id="Layer_1" xmlns="http://www.w3.org/2000/svg" xmlns:xlink="http://www.w3.org/1999/xlink" x="0px" y="0px"
	 viewBox="0 0 172.7 140.9" style="enable-background:new 0 0 172.7 140.9;" xml:space="preserve">
<g id="New_Symbol">
</g>
<g id="New_Symbol_1_">
</g>
<g id="New_Symbol_1">
</g>
<g id="New_Symbol_9_2_">
</g>
<g id="New_Symbol_7">
</g>
<g id="New_Symbol_9_1_">
</g>
<g id="New_Symbol_9">
</g>
<g id="Nuevo_símbolo">
</g>
<g id="New_Symbol_10">
</g>
<g id="New_Symbol_12">
</g>
<g id="New_Symbol_14">
</g>
<g id="New_Symbol_15">
</g>
<g id="New_Symbol_16">
</g>
<g id="New_Symbol_17_1_">
</g>
<g id="New_Symbol_18">
</g>
<g id="New_Symbol_19">
</g>
<g id="New_Symbol_17">
</g>
<g>
	<g>
		<g>
			<path d="M10.8,109.7h152.9V9.9H10.8C9.2,9.9,9,10.5,9,11.1v96.5C9,108.5,9.8,109.7,10.8,109.7z M11.5,12.4h149.6v2.8H11.5V12.4z
				 M11.5,17.7h149.6v89.5H11.5V17.7z"/>
		</g>
		<g>
			<circle cx="86.3" cy="121.9" r="2.6"/>
		</g>
		<g>
			<path d="M170.5,1H2.1c-1.5,0-2,1.4-2,2.5v123.1c0,1.3,0.6,2.6,2,2.6H62v8.1H46.1v2.5h80.4v-2.5h-15.9v-8.1h59.9
				c1.4,0,2-1.3,2-2.6V3.5C172.5,2.4,172,1,170.5,1z M108,137.2H64.6v-8.1h43.5v8.1H108z M170,126.6H2.6v-9.8h167.3L170,126.6
				L170,126.6z M170,114.2H2.6V3.6h167.3L170,114.2L170,114.2z"/>
		</g>
	</g>
	<g>
		<g>
			<g>
				<path d="M102.6,91.8c-13,0-24.3-8.9-27.4-21.5c-1.8-7.3-0.6-14.9,3.3-21.4s10.1-11,17.4-12.8c2.2-0.5,4.5-0.8,6.8-0.8
					c13,0,24.3,8.9,27.4,21.5c1.8,7.3,0.6,14.9-3.3,21.4s-10.1,11-17.4,12.8C107.1,91.5,104.9,91.8,102.6,91.8z M102.6,37.8
					c-2.1,0-4.1,0.3-6.2,0.7c-6.7,1.6-12.3,5.8-15.9,11.7c-3.6,5.9-4.6,12.8-3,19.5c2.8,11.6,13.1,19.6,25,19.6
					c2.1,0,4.1-0.3,6.2-0.7c6.7-1.6,12.3-5.8,15.9-11.7s4.6-12.8,3-19.5C124.8,45.8,114.5,37.8,102.6,37.8z"/>
			</g>
		</g>
		<g>
			<g>
				<path d="M102.6,87.1c-10.9,0-20.2-7.4-22.8-17.9C76.7,56.6,84.4,43.8,97,40.7c1.8-0.5,3.7-0.7,5.6-0.7
					c10.9,0,20.2,7.4,22.8,17.9c3.1,12.6-4.6,25.4-17.2,28.5C106.4,86.8,104.5,87.1,102.6,87.1z M102.6,42.5c-1.7,0-3.4,0.2-5,0.6
					c-11.3,2.8-18.2,14.2-15.4,25.4c2.3,9.4,10.7,16,20.4,16c1.7,0,3.4-0.2,5-0.6c11.3-2.8,18.2-14.2,15.4-25.4
					C120.7,49.1,112.3,42.5,102.6,42.5z"/>
			</g>
		</g>
		<g>
			<g>
				<path d="M102.7,80.9c-5,0-10-2-13.8-5.9l1.8-1.7c6.3,6.6,16.8,6.8,23.4,0.5l1.7,1.8C112.2,79.2,107.4,80.9,102.7,80.9z"/>
			</g>
		</g>
		<g>
			<g>
				<path d="M127.7,73.6c-0.9,2.2-2,4.3-3.4,6.1l29.7,18l3.6-6L127.7,73.6z"/>
			</g>
			<g>
				<path d="M154.4,99.4l-32-19.4l0.8-1.1c1.3-1.8,2.4-3.8,3.3-5.9l0.5-1.4l32.2,19.5L154.4,99.4z M126,79.3L153.5,96l2.3-3.9
					l-27.5-16.7C127.6,76.8,126.9,78.1,126,79.3z"/>
			</g>
		</g>
	</g>
	<g>
		<g>
			<g>
				<path d="M104.2,59.5c-0.5-2.5-3-4.2-5.5-3.7c-0.7,0.1-1.3,0.4-1.8,0.8L86.3,49c-0.7,0.5-1.3,1.1-1.9,1.7l10.9,7.8
					c-0.4,0.9-0.5,1.8-0.3,2.8c0.5,2.5,3,4.2,5.5,3.7C103,64.6,104.7,62.1,104.2,59.5z M100.1,63.1c-1.5,0.3-2.9-0.7-3.2-2.1
					c-0.3-1.5,0.7-2.9,2.1-3.2c1.5-0.3,2.9,0.7,3.2,2.1C102.5,61.4,101.6,62.8,100.1,63.1z"/>
			</g>
		</g>
		<g>
			<g>
				<path d="M66.8,32.4c-0.5-2.5-3-4.2-5.5-3.7s-4.2,3-3.7,5.5c0.1,0.7,0.5,1.4,0.9,2l-15.2,19C42.6,55,41.8,54.9,41,55
					c-0.8,0.2-1.5,0.5-2.1,1l-13.7-5.8c0.1-0.5,0.1-1,0-1.6c-0.5-2.5-3-4.2-5.5-3.7s-4.2,3-3.7,5.5c0.2,0.9,0.6,1.7,1.2,2.3
					L9.9,63.4v4.4L19.3,54c0.7,0.2,1.4,0.3,2.2,0.1c1.1-0.2,2.1-0.8,2.7-1.7L37.5,58c-0.3,0.8-0.3,1.6-0.2,2.4
					c0.5,2.5,3,4.2,5.5,3.7s4.2-3,3.7-5.5c-0.2-0.8-0.6-1.6-1.1-2.2l15.1-18.9c0.8,0.3,1.7,0.4,2.6,0.2c0.8-0.2,1.5-0.5,2.1-1.1
					l15.4,11.1c0.6-0.6,1.2-1.2,1.8-1.8L66.6,34.7C66.8,34,66.9,33.2,66.8,32.4z M22.2,51.7c-0.3,0.3-0.7,0.5-1.2,0.6
					c-0.2,0-0.4,0.1-0.5,0.1c-0.2,0-0.4,0-0.6-0.1c-0.1,0-0.1,0-0.2-0.1c-0.1,0-0.3-0.1-0.4-0.2c-0.1,0-0.1-0.1-0.2-0.1
					c-0.1-0.1-0.2-0.2-0.3-0.2l-0.1-0.1c-0.1-0.1-0.3-0.3-0.4-0.4c-0.2-0.3-0.3-0.6-0.4-1c-0.3-1.5,0.7-2.9,2.1-3.2
					c1.5-0.3,2.9,0.7,3.2,2.1c0,0.1,0,0.2,0,0.3C23.2,50.3,22.9,51.1,22.2,51.7z M42.4,62.3c-1.5,0.3-2.9-0.7-3.2-2.1
					c-0.1-0.4-0.1-0.8,0.1-1.2c0.1-0.2,0.2-0.4,0.3-0.6l0,0c0.2-0.4,0.6-0.7,1-1l0,0c0.2-0.1,0.4-0.2,0.7-0.3c0.1,0,0.1,0,0.1,0
					c0.2,0,0.4-0.1,0.6,0c0.2,0,0.4,0,0.6,0.1c0.1,0,0.1,0,0.1,0c0.1,0,0.3,0.1,0.4,0.2l0.1,0.1c0.1,0.1,0.3,0.2,0.4,0.3
					c0,0,0.1,0,0.1,0.1c0.2,0.1,0.3,0.3,0.4,0.5c0.2,0.3,0.3,0.6,0.4,1C44.8,60.6,43.8,62,42.4,62.3z M64.8,33.5L64.8,33.5
					c-0.1,0.9-0.6,1.7-1.3,2.1c-0.3,0.1-0.5,0.3-0.8,0.3c-0.3,0.1-0.6,0.1-0.9,0c-0.9-0.1-1.6-0.7-2-1.5c-0.1-0.2-0.2-0.4-0.3-0.7
					c-0.3-1.5,0.7-2.9,2.1-3.2c1.5-0.3,2.9,0.7,3.2,2.1C64.8,33,64.8,33.2,64.8,33.5z"/>
			</g>
		</g>
	</g>
</g>
</svg>
