<?xml version="1.0" encoding="utf-8"?>
<!-- Generator: Adobe Illustrator 21.0.2, SVG Export Plug-In . SVG Version: 6.00 Build 0)  -->
<svg version="1.1" id="Layer_1" xmlns="http://www.w3.org/2000/svg" xmlns:xlink="http://www.w3.org/1999/xlink" x="0px" y="0px"
	 viewBox="0 0 138.5 105.9" style="enable-background:new 0 0 138.5 105.9;" xml:space="preserve">
<style type="text/css">
	.st0{opacity:0.3;fill:#5B5B5B;stroke:#000000;stroke-miterlimit:10;enable-background:new    ;}
	.st1{fill:none;stroke:#000000;stroke-linecap:round;stroke-linejoin:round;stroke-miterlimit:10;}
</style>
<g>
	<rect x="44.9" y="84.5" class="st0" width="21" height="5"/>
	<path class="st1" d="M89.7,84.6h-76c-6.6,0-12-5.4-12-12V13.7c0-6.6,5.4-12,12-12h83.8c6.6,0,12,5.4,12,12v22.5"/>
	<path class="st1" d="M89.7,67.3h-76c-3.6,0-6.5-2.9-6.5-6.5V14.1c0-3.6,2.9-6.5,6.5-6.5h83.6c3.6,0,6.5,2.9,6.5,6.5v21.7"/>
	<path class="st0" d="M7.2,16.1v-2.1c0-3.6,2.9-6.5,6.5-6.5h83.6c3.6,0,6.5,2.9,6.5,6.5v2.1C103.8,16.1,7.2,16.1,7.2,16.1z"/>
	<path class="st1" d="M7.2,16.1v-2.1c0-3.6,2.9-6.5,6.5-6.5h83.6c3.6,0,6.5,2.9,6.5,6.5v2.1C103.8,16.1,7.2,16.1,7.2,16.1z"/>
	<circle class="st0" cx="55.5" cy="76.2" r="3.6"/>
	<circle class="st1" cx="55.5" cy="76.2" r="3.6"/>
	<path class="st1" d="M66.1,84.8c0,0-1.9,12.3,7.5,12.3c-11.4,0-18.7,0-18.7,0h1.2c0,0-7,0-18.5,0c9.4,0,7.3-12.2,7.3-12.2"/>
	<rect x="14.5" y="22.5" class="st1" width="36" height="13.4"/>
	<g>
		<line class="st1" x1="56.3" y1="24.2" x2="86.3" y2="24.2"/>
		<line class="st1" x1="56.3" y1="30.2" x2="91.3" y2="30.2"/>
		<line class="st1" x1="56.3" y1="34.2" x2="86.3" y2="34.2"/>
	</g>
	<rect x="14.5" y="43.4" class="st0" width="18" height="18"/>
	<rect x="14.5" y="43.4" class="st1" width="18" height="18"/>
	<rect x="39" y="43.4" class="st1" width="18" height="18"/>
	<rect x="63.5" y="43.4" class="st1" width="18" height="18"/>
	<path class="st1" d="M132.7,104.5H94.5c-2.7,0-4.8-2.2-4.8-4.8V41.1c0-2.7,2.2-4.8,4.8-4.8h38.1c2.7,0,4.8,2.2,4.8,4.8v58.6
		C137.5,102.3,135.3,104.5,132.7,104.5z"/>
	<path class="st1" d="M131,93.5H96.2c-1.7,0-3.1-1.4-3.1-3.1V43.3c0-1.7,1.4-3.1,3.1-3.1H131c1.7,0,3.1,1.4,3.1,3.1v47.1
		C134.2,92.1,132.8,93.5,131,93.5z"/>
	<circle class="st0" cx="115.4" cy="98.8" r="2.2"/>
	<circle class="st1" cx="115.4" cy="98.8" r="2.2"/>
	<rect x="98.9" y="45.2" class="st0" width="30.6" height="25.6"/>
	<rect x="98.3" y="45.2" class="st1" width="31.2" height="25.6"/>
	<line class="st1" x1="99.3" y1="78.2" x2="123.3" y2="78.2"/>
	<line class="st1" x1="99.3" y1="82.2" x2="119.3" y2="82.2"/>
</g>
</svg>
