<?xml version="1.0" encoding="utf-8"?>
<!-- Generator: Adobe Illustrator 19.2.1, SVG Export Plug-In . SVG Version: 6.00 Build 0)  -->
<svg version="1.1" id="Lager_1" xmlns="http://www.w3.org/2000/svg" xmlns:xlink="http://www.w3.org/1999/xlink" x="0px" y="0px"
	 viewBox="0 0 634.7 150.7" style="enable-background:new 0 0 634.7 150.7;" xml:space="preserve">
<style type="text/css">
	.st0{fill:#FFFFFF;}
</style>
<path class="st0" d="M2.7,42.4h17.8v21.3h8.3l22.4-21.3h24.2L44,70.7l35,29.6H53.9L28.3,78.1h-7.8v22.2H2.7V42.4z"/>
<path class="st0" d="M85.6,42.4h17.8v43h39.9v14.9H85.6V42.4z"/>
<path class="st0" d="M216.5,42.4h27.3l20.1,37.3l20.1-37.3h27.3v57.9h-17.3V58.7h-0.2l-23.3,41.6h-13.3l-23.3-41.6h-0.2v41.6h-17.3
	V42.4z"/>
<path class="st0" d="M348.9,42.4H372l31.8,57.9h-19.8l-5.5-10.2h-36l-5.2,10.2h-19.8L348.9,42.4z M349.2,77.6h22.7l-11.5-21.8
	L349.2,77.6z"/>
<path class="st0" d="M397,42.4h67.7v14.4h-25v43.5H422V56.8h-25V42.4z"/>
<path class="st0" d="M471.2,62.7c0-17,9.5-21,25.5-21h28.5c16,0,25.5,4,25.5,21V80c0,17-9.5,21-25.5,21h-28.5c-16,0-25.5-4-25.5-21
	V62.7z M489.4,74.5c0,8.4,1.8,11.6,10.2,11.6h22.7c8.4,0,10.2-3.2,10.2-11.6v-6.2c0-7.2-1.8-11.6-11.1-11.6h-20.8
	c-9.4,0-11.1,4.4-11.1,11.6V74.5z"/>
<path class="st0" d="M561.4,42.4H615c13.7,0,17.4,6.8,17.4,17.2v3.7c0,7.8-1.8,12.3-9.9,14.2v0.2c5.3,1,9.7,3.3,9.7,12.8v9.8h-17.8
	v-7c0-6.1-1.8-8.1-7.3-8.1h-27.9v15h-17.8V42.4z M579.2,70.9h29.4c4.8,0,6.6-1.9,6.6-6.1v-1.9c0-5.1-2.6-6.1-8.2-6.1h-27.8V70.9z"/>
<polygon class="st0" points="154.5,37.2 174.8,2.9 197.3,37.2 "/>
<g>
	<g>
		<path class="st0" d="M143.3,42.4l31.3,105.5l32.6-105.5H143.3z M162.6,57.2h25.5l-13,42.8L162.6,57.2z"/>
	</g>
</g>
</svg>
