<?xml version="1.0" encoding="utf-8"?>
<!-- Generator: Adobe Illustrator 19.2.0, SVG Export Plug-In . SVG Version: 6.00 Build 0)  -->
<svg version="1.1" id="Lager_1" xmlns="http://www.w3.org/2000/svg" xmlns:xlink="http://www.w3.org/1999/xlink" x="0px" y="0px"
	 viewBox="0 0 634.7 154.3" style="enable-background:new 0 0 634.7 154.3;" xml:space="preserve">
<style type="text/css">
	.st0{fill:#7B1933;}
</style>
<path class="st0" d="M2.7,46.1h17.8v21.3h8.3l22.4-21.3h24.2L44,74.4L79,104H53.9L28.3,81.8h-7.8V104H2.7V46.1z"/>
<path class="st0" d="M85.6,46.1h17.8v43h39.9V104H85.6V46.1z"/>
<path class="st0" d="M216.5,46.1h27.3l20.1,37.3l20.1-37.3h27.3V104h-17.3V62.4h-0.2L270.5,104h-13.3l-23.3-41.6h-0.2V104h-17.3
	V46.1z"/>
<path class="st0" d="M348.9,46.1H372l31.8,57.9h-19.8l-5.5-10.2h-36l-5.2,10.2h-19.8L348.9,46.1z M349.2,81.3h22.7l-11.5-21.8
	L349.2,81.3z"/>
<path class="st0" d="M397,46.1h67.7v14.4h-25V104H422V60.5h-25V46.1z"/>
<path class="st0" d="M471.2,66.4c0-17,9.5-21,25.5-21h28.5c16,0,25.5,4,25.5,21v17.3c0,17-9.5,21-25.5,21h-28.5
	c-16,0-25.5-4-25.5-21V66.4z M489.4,78.2c0,8.4,1.8,11.6,10.2,11.6h22.7c8.4,0,10.2-3.2,10.2-11.6v-6.2c0-7.2-1.8-11.6-11.1-11.6
	h-20.8c-9.4,0-11.1,4.4-11.1,11.6V78.2z"/>
<path class="st0" d="M561.4,46.1H615c13.7,0,17.4,6.8,17.4,17.2V67c0,7.8-1.8,12.3-9.9,14.2v0.2c5.3,1,9.7,3.3,9.7,12.8v9.8h-17.8
	v-7c0-6.1-1.8-8.1-7.3-8.1h-27.9v15h-17.8V46.1z M579.2,74.6h29.4c4.8,0,6.6-1.9,6.6-6.1v-1.9c0-5.1-2.6-6.1-8.2-6.1h-27.8V74.6z"/>
<polygon class="st0" points="154.5,38 174.8,3.7 197.3,38 "/>
<g>
	<g>
		<path class="st0" d="M143.3,46.1l31.3,105.5l32.6-105.5H143.3z M162.6,60.9h25.5l-13,42.8L162.6,60.9z"/>
	</g>
</g>
</svg>
