<?xml version="1.0" encoding="utf-8"?>
<!-- Generator: Adobe Illustrator 21.0.2, SVG Export Plug-In . SVG Version: 6.00 Build 0)  -->
<svg version="1.1" id="Layer_1" xmlns="http://www.w3.org/2000/svg" xmlns:xlink="http://www.w3.org/1999/xlink" x="0px" y="0px"
	 viewBox="0 0 48 48" style="enable-background:new 0 0 48 48;" xml:space="preserve">
<style type="text/css">
	.st0{fill:#333333;}
</style>
<g id="Expanded">
	<g>
		<g>
			<path class="st0" d="M22,35c-9.4,0-17-7.6-17-17S12.6,1,22,1s17,7.6,17,17S31.4,35,22,35z M22,3C13.7,3,7,9.7,7,18s6.7,15,15,15
				s15-6.7,15-15S30.3,3,22,3z"/>
		</g>
		<g>
			<path class="st0" d="M22,40c-5.6,0-11.3-2.1-15.6-6.4l1.4-1.4c7.8,7.8,20.5,7.8,28.3,0c7.8-7.8,7.8-20.5,0-28.3l1.4-1.4
				c8.6,8.6,8.6,22.5,0,31.1C33.3,37.8,27.6,40,22,40z"/>
		</g>
		<g>
			<rect x="20" y="39" class="st0" width="2" height="4"/>
		</g>
		<g>
			<rect x="22" y="39" class="st0" width="2" height="4"/>
		</g>
		<g>
			<path class="st0" d="M37,48H7l2.4-1.8c3.7-2.7,8-4.2,12.6-4.2s8.9,1.5,12.6,4.2L37,48z M13.5,46h16.9c-2.6-1.3-5.5-2-8.5-2
				S16.2,44.7,13.5,46z"/>
		</g>
		<g>
			<path class="st0" d="M5.7,35.3c-0.3,0-0.5-0.1-0.7-0.3c-0.4-0.4-0.4-1,0-1.4l2.8-2.8c0.4-0.4,1-0.4,1.4,0s0.4,1,0,1.4L6.4,35
				C6.3,35.2,6,35.3,5.7,35.3z"/>
		</g>
		<g>
			<path class="st0" d="M35.4,5.6c-0.3,0-0.5-0.1-0.7-0.3c-0.4-0.4-0.4-1,0-1.4L37.6,1c0.4-0.4,1-0.4,1.4,0s0.4,1,0,1.4l-2.8,2.8
				C36,5.5,35.7,5.6,35.4,5.6z"/>
		</g>
	</g>
</g>
</svg>
