<?xml version="1.0" encoding="utf-8"?>
<!-- Generator: Adobe Illustrator 19.2.0, SVG Export Plug-In . SVG Version: 6.00 Build 0)  -->
<svg version="1.1" id="Layer_1" xmlns="http://www.w3.org/2000/svg" xmlns:xlink="http://www.w3.org/1999/xlink" x="0px" y="0px"
	 viewBox="0 0 248.9 268" style="enable-background:new 0 0 248.9 268;" xml:space="preserve">
<style type="text/css">
	.st0{fill:#FFFFFF;}
</style>
<path class="st0" d="M210.6,122.7H201V97.1c0-4.7-4.3-8.5-9.6-8.5H9.6c-5.3,0-9.6,3.8-9.6,8.5s4.3,8.5,9.6,8.5h172.3v102.6
	c0,23.6-21.5,42.7-47.9,42.7H67c-26.4,0-47.9-19.2-47.9-42.7v-76.9c0-4.7-4.3-8.5-9.6-8.5S0,126.5,0,131.3v76.9
	c0,33,30.1,59.8,67,59.8h67c36.9,0,67-26.8,67-59.8v-8.5h9.6c21.1,0,38.3-15.3,38.3-34.2V157C248.9,138.1,231.7,122.7,210.6,122.7z
	 M229.7,165.4c0,9.4-8.6,17.1-19.1,17.1H201v-42.7h9.6c10.6,0,19.1,7.7,19.1,17.1L229.7,165.4L229.7,165.4z"/>
<g>
	<path class="st0" d="M57.4,80c5.3,0,9.6-4.8,9.6-10.7V48c0-5.9-4.3-10.7-9.6-10.7s-9.6,4.8-9.6,10.7v21.3
		C47.9,75.2,52.1,80,57.4,80z"/>
	<path class="st0" d="M95.7,80c5.3,0,9.6-4.8,9.6-10.7V26.7c0-5.9-4.3-10.7-9.6-10.7c-5.3,0-9.6,4.8-9.6,10.7v42.7
		C86.1,75.2,90.4,80,95.7,80z"/>
	<path class="st0" d="M134,80c5.3,0,9.6-4.8,9.6-10.7V48c0-5.9-4.3-10.7-9.6-10.7s-9.6,4.8-9.6,10.7v21.3
		C124.4,75.2,128.7,80,134,80z"/>
</g>
</svg>
