<?xml version="1.0" encoding="utf-8"?>
<!-- Generator: Adobe Illustrator 19.2.0, SVG Export Plug-In . SVG Version: 6.00 Build 0)  -->
<svg version="1.1" id="Layer_1" xmlns="http://www.w3.org/2000/svg" xmlns:xlink="http://www.w3.org/1999/xlink" x="0px" y="0px"
	 viewBox="0 0 307.4 306.8" style="enable-background:new 0 0 307.4 306.8;" xml:space="preserve">
<style type="text/css">
	.st0{fill:#4A4544;}
</style>
<path class="st0" d="M307.4,297.3c-3.5,3.3-6.6,6.2-9.3,8.8c-48.1-47.5-96.1-94.9-144.1-142.3c-47.7,47.7-95.5,95.5-143,143
	c-3.9-3.5-7.1-6.4-11-10c48.2-47.6,96-94.9,144.4-142.7C96,105.5,48.5,57.7,0.6,9.7C4,6.5,7,3.5,10.3,0.4
	C57.9,48.1,105.6,95.7,152.8,143C201.1,95.2,249,47.7,297.2,0c3.4,3.2,6.5,6.1,9.5,9c-48,48-95.7,95.7-143.8,143.8
	C211.5,201.4,259.3,249.2,307.4,297.3z"/>
</svg>
