<?xml version="1.0" encoding="utf-8"?>
<!-- Generator: Adobe Illustrator 21.0.2, SVG Export Plug-In . SVG Version: 6.00 Build 0)  -->
<svg version="1.1" id="Layer_1" xmlns:sketch="http://www.bohemiancoding.com/sketch/ns"
	 xmlns="http://www.w3.org/2000/svg" xmlns:xlink="http://www.w3.org/1999/xlink" x="0px" y="0px" viewBox="0 0 16.1 22"
	 style="enable-background:new 0 0 16.1 22;" xml:space="preserve">
<title></title>
<desc></desc>
<g id="slice" transform="translate(215.000000, 119.000000)">
</g>
<path id="editor-document-file-2-outline-stroke" d="M0,0.5C0,0,0.5,0,0.5,0h11.2l4.4,4.4v17.1c0,0.5-0.5,0.5-0.5,0.5h-15
	c0,0-0.5,0-0.5-0.5v-21H0z M3,3v1h6V3H3z M3,6v1h10V6H3z M3,9v1h10V9H3z M3,12v1h10v-1H3z M3,16h10v-1H3V16z M3,19h10v-1H3V19z"/>
</svg>
