<?xml version="1.0" encoding="utf-8"?>
<!-- Generator: Adobe Illustrator 21.0.2, SVG Export Plug-In . SVG Version: 6.00 Build 0)  -->
<svg version="1.1" id="Layer_1" xmlns="http://www.w3.org/2000/svg" xmlns:xlink="http://www.w3.org/1999/xlink" x="0px" y="0px"
	 viewBox="0 0 92.1 91.1" style="enable-background:new 0 0 92.1 91.1;" xml:space="preserve">
<style type="text/css">
	.st0{fill:#010101;}
</style>
<path class="st0" d="M60.3,77.9c-2.1,0.7-4.3,1.5-6.4,2.1c-0.9,0.2-1.1,0.6-1.2,1.4c-0.2,2.7-0.5,5.4-0.8,8.1
	c-0.1,1-0.7,1.6-1.8,1.6c-3,0-5.9,0.1-8.8-0.1c-0.6,0-1.6-0.8-1.7-1.4c-0.4-2.5-0.7-5-0.9-7.6c-0.1-1.2-0.3-2-1.7-2.3
	c-3.6-0.6-6.9-2.1-9.9-4c-0.6-0.4-1.1-0.4-1.6,0.1c-2.2,1.8-4.4,3.5-6.6,5.2c-0.8,0.6-1.5,0.6-2.3-0.1c-2.1-2.1-4.2-4.2-6.3-6.3
	c-0.7-0.7-0.8-1.5-0.1-2.4c1.7-2.1,3.3-4.2,5-6.3c0.6-0.7,0.7-1.2,0.2-2.1c-2-3.2-3.4-6.7-4.3-10.4c-0.1-0.4-0.6-0.9-1-0.9
	c-2.7-0.3-5.4-0.6-8.1-0.8c-1.2-0.1-1.9-0.8-2-2c0-2.8,0-5.6,0-8.5c0-1.4,0.6-1.9,1.9-2c2.7-0.2,5.4-0.5,8.1-0.8
	c0.4-0.1,1-0.6,1.1-1c1-3.7,2.4-7.2,4.5-10.5c0.4-0.7,0.3-1.1-0.2-1.7c-1.7-2.1-3.4-4.3-5-6.4c-0.7-0.9-0.7-1.7,0.1-2.4
	c2.1-2.1,4.1-4.1,6.2-6.2c0.7-0.7,1.5-0.7,2.4-0.1c2.1,1.7,4.3,3.4,6.4,5.1c0.6,0.5,1.1,0.7,1.8,0.2c3.1-2,6.4-3.4,10-4.2
	c1-0.2,1.4-0.7,1.5-1.5c0.3-2.5,0.6-5,0.8-7.6C39.7,0.5,40.2,0,41.8,0c2.7,0,5.5,0,8.2,0c1.3,0,2,0.7,2.1,2c0.2,2.7,0.5,5.4,0.8,8.1
	c0.1,0.4,0.6,0.9,1,1c3.6,0.9,7.1,2.2,10.3,4.3c0.9,0.6,1.5,0.4,2.2-0.2c2-1.6,4.1-3.2,6.2-4.9c0.9-0.7,1.7-0.7,2.5,0.1c2,2,4,4,6,6
	c0.9,0.9,0.8,1.7,0.1,2.6c-1.8,2.1-3.5,4.3-5.1,6.5c-0.2,0.3-0.2,1,0,1.3c2,3.4,3.5,6.9,4.4,10.8c0.1,0.4,0.7,0.8,1.1,0.9
	c2.7,0.3,5.4,0.6,8.1,0.8c1.1,0.1,1.9,0.8,1.9,1.9c0,2.9,0,5.7,0,8.6c0,1.1-0.6,1.8-1.7,1.9c-2.7,0.3-5.5,0.5-8.2,0.9
	c-0.4,0.1-1,0.6-1.1,1.1c-0.7,1.9-1.3,3.8-2,5.9c-0.5-0.3-0.8-0.4-1-0.7c-2-1.9-3.9-3.8-5.9-5.6c-0.7-0.6-0.7-1.2-0.6-2
	c0.3-2.1,0.8-4.3,0.7-6.4c-0.2-6.6-2.5-12.4-7.1-17.2C61.2,24,57,21.4,52,20.4c-9-2-17,0.1-23.7,6.5c-6.2,5.7-8.8,12.6-8.3,20.6
	c0.4,5.9,2.7,11.1,6.7,15.5s9,7.1,14.8,8.1c3.3,0.6,6.6,0.5,9.9-0.4c1-0.3,1.7-0.1,2.5,0.7c2,2.1,4.2,4.1,6.4,6.1
	C60.3,77.6,60.3,77.7,60.3,77.9z"/>
<path class="st0" d="M28.2,40.4c1.8,2,3.4,3.7,5.1,5.4c2.2,2.3,4.6,2.2,6.8-0.1c2-2,4-4,5.8-6.1c1.3-1.5,1.1-3.9-0.3-5.4
	c-1.9-1.8-3.8-3.6-5.9-5.6c2.2-0.7,4.2-1.1,6.2-0.9c4,0.3,7.6,1.6,10.7,4.1c4.2,3.4,6.8,7.8,7.1,13.2c0.1,1.9-0.3,3.9-0.4,5.8
	c0,0.6,0.1,1.3,0.4,1.6c4.7,4.6,9.4,9.1,14.1,13.7c1.3,1.2,2.5,2.5,3.8,3.7c2.6,2.5,5.2,5,7.8,7.5c3.3,3.3,3.6,7.4,0.5,10.9
	c-2.5,2.8-6.5,3.8-10.1,0.9c-2-1.6-3.9-3.4-5.8-5.2c-3.7-3.6-7.4-7.2-11-10.8c-3.2-3.2-6.5-6.3-9.7-9.5c-0.6-0.6-1.1-0.6-1.9-0.4
	c-9.4,2.9-19.1-2.5-22.6-11.1C27.3,48.5,27.1,44.8,28.2,40.4z M88.5,85.1c0-1.8-1-2.9-2.8-2.9s-2.8,1.1-2.8,2.9S84,88,85.8,88
	S88.5,87,88.5,85.1z"/>
</svg>
