<?xml version="1.0" encoding="utf-8"?>
<!-- Generator: Adobe Illustrator 21.0.2, SVG Export Plug-In . SVG Version: 6.00 Build 0)  -->
<svg version="1.1" id="Layer_1" xmlns="http://www.w3.org/2000/svg" xmlns:xlink="http://www.w3.org/1999/xlink" x="0px" y="0px"
	 viewBox="0 0 92.8 71.6" style="enable-background:new 0 0 92.8 71.6;" xml:space="preserve">
<g>
	<path d="M62.8,66.1c-2.7,0.6-5.3,1.2-8.1,1.9c-0.6-4.1-1.3-8.1-1.9-12c-0.2,0-0.2-0.1-0.3-0.1c-2.1,0.3-2,0.3-1.9,2.4
		c0.2,3.3,0.5,6.5,0.7,10c-3.4,0-6.8,0-10.2,0c0.2-2.8,0.4-5.4,0.6-8c0.1-1.1,0.1-2.1,0.3-3.1c0.1-0.6-0.1-1-0.8-1
		c-0.5,0-1-0.2-1.5-0.3c-0.6,4-1.2,7.9-1.9,12.1c-2.7-0.6-5.4-1.3-8.1-1.9c0.5-3.2,0.9-6.2,1.4-9.2c0.2-1.2,0.3-2.3,0.5-3.5
		c0.1-0.6-0.1-0.9-0.6-1.2c-6.3-4-10.4-9.6-12.4-16.8C14.2,19.4,24.7,2.9,41,0c14.8-2.6,28.8,6.3,32.7,20.8
		c3.2,11.9-1.7,24.5-12.2,31.3c-0.7,0.4-0.9,0.8-0.8,1.7C61.6,57.7,62.1,61.8,62.8,66.1z M64.1,29.5c0-4-3.2-7.1-7.1-7.2
		c-4,0-7.2,3.2-7.2,7.1c0,4,3.2,7.3,7.1,7.3C60.9,36.7,64.1,33.5,64.1,29.5z M28.3,29.5c0,3.9,3.2,7.2,7.1,7.2s7.2-3.2,7.2-7.1
		c0-4-3.2-7.2-7.1-7.2C31.5,22.3,28.4,25.4,28.3,29.5z M51.6,47.1c-1.8-3.6-3.6-7.1-5.4-10.8c-1.9,3.7-3.6,7.2-5.4,10.8
		C44.5,47.1,48,47.1,51.6,47.1z"/>
	<path d="M14.3,57.4c2.3-1.6,4.6-3.2,6.8-4.8c1.1-0.7,2.2-1,3.4-0.5c1.2,0.5,2,1.4,2.2,2.7c0.2,1.4-0.3,2.6-1.5,3.5
		c-2,1.4-4,2.8-6,4.2c-0.3,0.2-0.5,0.4-0.6,0.5c0.2,1.3,0.6,2.4,0.6,3.6c0,2.7-2.4,5-5.2,5s-5.2-2.3-5.3-5c0-0.7-0.1-1-0.8-1.3
		c-2-0.7-3.3-2.7-3.3-4.8c0-2.1,1.3-4.1,3.2-4.9c2-0.8,4.2-0.4,5.8,1.1C13.8,56.8,14,57.1,14.3,57.4z"/>
	<path d="M83.8,65.6c0.1,2.8-1,4.8-3.8,5.7c-2.2,0.7-4.1,0.1-5.5-1.6c-1.7-2-1.7-4.2-0.4-6.6c-0.3-0.2-0.5-0.4-0.8-0.6
		c-1.9-1.4-3.9-2.7-5.8-4.1c-1.8-1.3-2.3-3.4-1.2-5.1c1.2-1.7,3.3-2,5.2-0.7c2.2,1.5,4.4,3.1,6.6,4.6c1.8-2.1,4.1-2.9,6.7-1.7
		c2.1,0.9,3.1,2.6,3.1,4.9C87.8,63.1,86.3,64.8,83.8,65.6z"/>
	<path d="M82.9,18.4C79.8,20,78.2,20,77,18.2c-0.7-1-0.9-2.2-0.4-3.3c0.5-0.9,1.3-1.7,2.1-2.7c-0.6-1.1-1-2.4-0.6-3.9
		c0.6-2.6,2.9-4.4,5.5-4.2c2.7,0.2,4.8,2.2,5,4.9c0,0.9,0.3,1.2,1.1,1.6c2,0.9,3.1,2.6,3,4.9s-1.2,3.9-3.3,4.7
		c-2.1,0.9-4,0.4-5.7-1.1C83.4,18.9,83.2,18.7,82.9,18.4z"/>
	<path d="M13.7,12.4c2.5,2.3,3.1,3.9,1.9,5.7c-0.7,1-1.7,1.7-2.9,1.5c-1.1-0.1-2.1-0.7-3.2-1.1c-0.7,0.9-1.8,1.7-3.1,2
		c-2.7,0.6-5.4-0.9-6.2-3.6c-0.8-2.6,0.4-5.4,3-6.4c0.7-0.3,0.9-0.6,0.9-1.3c0-2.2,1.4-4,3.5-4.7c2.2-0.8,4.1-0.3,5.7,1.4
		c1.5,1.6,1.8,3.6,1,5.7C14,11.8,13.8,12.1,13.7,12.4z"/>
</g>
</svg>
