<?xml version="1.0" encoding="utf-8"?>
<!-- Generator: Adobe Illustrator 21.0.2, SVG Export Plug-In . SVG Version: 6.00 Build 0)  -->
<svg version="1.1" id="Layer_1" xmlns="http://www.w3.org/2000/svg" xmlns:xlink="http://www.w3.org/1999/xlink" x="0px" y="0px"
	 viewBox="0 0 183.5 200" style="enable-background:new 0 0 183.5 200;" xml:space="preserve">
<g>
	<path d="M129.6,28.7H118c-1.5,0-2.5,0.3-3.1,0.9c-0.5,0.6-0.8,1.6-0.8,3.2v9c0,1.6,0.3,2.6,0.8,3.2c0.5,0.6,1.6,0.9,3.1,0.9h11.6
		c1.5,0,2.6-0.3,3.1-0.9c0.5-0.6,0.8-1.6,0.8-3.2v-9c0-1.6-0.3-2.6-0.8-3.2C132.2,29,131.2,28.7,129.6,28.7z M130,42.8h-12.2V31.7
		H130V42.8z"/>
	<path d="M104,28.7H92.4c-1.5,0-2.5,0.3-3.1,0.9c-0.5,0.6-0.8,1.6-0.8,3.2v9c0,1.6,0.3,2.6,0.8,3.2s1.6,0.9,3.1,0.9H104
		c1.5,0,2.6-0.3,3.1-0.9c0.5-0.6,0.8-1.6,0.8-3.2v-9c0-1.6-0.3-2.6-0.8-3.2C106.5,29,105.5,28.7,104,28.7z M104.3,42.8H92.1V31.7
		h12.2V42.8z"/>
	<path d="M172.2,0H11.8C5.6,0,0.5,5.1,0.5,11.3v177.3c0,6.2,5.1,11.3,11.3,11.3h160.4c6.2,0,11.3-5.1,11.3-11.3V11.3
		C183.5,5.1,178.4,0,172.2,0z M44.6,177.7c0,2.9-2.4,5.3-5.4,5.3H22.8c-2.9,0-5.4-2.4-5.4-5.3v-16.4c0-2.9,2.4-5.4,5.4-5.4h16.4
		c2.9,0,5.4,2.4,5.4,5.4V177.7z M44.6,137c0,2.9-2.4,5.3-5.4,5.3H22.8c-2.9,0-5.4-2.4-5.4-5.3v-16.4c0-2.9,2.4-5.3,5.4-5.3h16.4
		c2.9,0,5.4,2.4,5.4,5.3V137z M44.6,96.4c0,2.9-2.4,5.3-5.4,5.3H22.8c-2.9,0-5.4-2.4-5.4-5.3V80c0-2.9,2.4-5.3,5.4-5.3h16.4
		c2.9,0,5.4,2.4,5.4,5.3V96.4z M85.2,177.7c0,2.9-2.4,5.3-5.3,5.3H63.5c-2.9,0-5.3-2.4-5.3-5.3v-16.4c0-2.9,2.4-5.4,5.3-5.4h16.4
		c2.9,0,5.3,2.4,5.3,5.4L85.2,177.7L85.2,177.7z M85.2,137c0,2.9-2.4,5.3-5.3,5.3H63.5c-2.9,0-5.3-2.4-5.3-5.3v-16.4
		c0-2.9,2.4-5.3,5.3-5.3h16.4c2.9,0,5.3,2.4,5.3,5.3L85.2,137L85.2,137z M85.2,96.4c0,2.9-2.4,5.3-5.3,5.3H63.5
		c-2.9,0-5.3-2.4-5.3-5.3V80c0-2.9,2.4-5.3,5.3-5.3h16.4c2.9,0,5.3,2.4,5.3,5.3L85.2,96.4L85.2,96.4z M125.9,177.7
		c0,2.9-2.4,5.3-5.3,5.3h-16.4c-2.9,0-5.3-2.4-5.3-5.3v-16.4c0-2.9,2.4-5.4,5.3-5.4h16.4c2.9,0,5.3,2.4,5.3,5.4V177.7z M125.9,137
		c0,2.9-2.4,5.3-5.3,5.3h-16.4c-2.9,0-5.3-2.4-5.3-5.3v-16.4c0-2.9,2.4-5.3,5.3-5.3h16.4c2.9,0,5.3,2.4,5.3,5.3V137z M125.9,96.4
		c0,2.9-2.4,5.3-5.3,5.3h-16.4c-2.9,0-5.3-2.4-5.3-5.3V80c0-2.9,2.4-5.3,5.3-5.3h16.4c2.9,0,5.3,2.4,5.3,5.3V96.4z M166.5,177.7
		c0,2.9-2.4,5.3-5.4,5.3h-16.4c-2.9,0-5.3-2.4-5.3-5.3v-57c0-2.9,2.4-5.3,5.3-5.3h16.4c2.9,0,5.4,2.4,5.4,5.3V177.7z M166.5,96.4
		c0,2.9-2.4,5.3-5.4,5.3h-16.4c-2.9,0-5.3-2.4-5.3-5.3V80c0-2.9,2.4-5.3,5.3-5.3h16.4c2.9,0,5.4,2.4,5.4,5.3V96.4z M166.5,52.3
		c0,2.9-2.4,5.3-5.4,5.3H22.8c-2.9,0-5.4-2.4-5.4-5.3v-30c0-2.9,2.4-5.3,5.4-5.3h138.3c2.9,0,5.4,2.4,5.4,5.3V52.3z"/>
	<path d="M155.3,28.7h-11.6c-1.5,0-2.5,0.3-3.1,0.9c-0.5,0.6-0.8,1.6-0.8,3.2v9c0,1.6,0.3,2.6,0.8,3.2c0.5,0.6,1.6,0.9,3.1,0.9h11.6
		c1.5,0,2.6-0.3,3.1-0.9c0.5-0.6,0.8-1.6,0.8-3.2v-9c0-1.6-0.3-2.6-0.8-3.2C157.9,29,156.8,28.7,155.3,28.7z M155.6,42.8h-12.2V31.7
		h12.2V42.8L155.6,42.8z"/>
</g>
</svg>
