<?xml version="1.0" encoding="utf-8"?>
<!-- Generator: Adobe Illustrator 21.0.2, SVG Export Plug-In . SVG Version: 6.00 Build 0)  -->
<svg version="1.1" id="Layer_1" xmlns="http://www.w3.org/2000/svg" xmlns:xlink="http://www.w3.org/1999/xlink" x="0px" y="0px"
	 viewBox="0 0 17.1 20" style="enable-background:new 0 0 17.1 20;" xml:space="preserve">
<style type="text/css">
	.st0{fill:none;stroke:#000000;stroke-width:2;stroke-miterlimit:10;}
</style>
<circle cx="13" cy="2" r="2"/>
<path class="st0" d="M0,14c0,0,2.9,0,4.5,0c0.6,0,1.2-0.3,1.6-0.8l0.3-0.4"/>
<path class="st0" d="M3,6c0,0,2.1-1,3.2-1.6c0.5-0.2,1-0.3,1.5-0.1L9,4.7l1.7,0.8c0.4,0.2,0.7,0.5,0.9,0.9L12.4,8
	c0.3,0.7,1,1.1,1.8,1.1c1.2,0,2.9,0,2.9,0"/>
<path d="M8.7,5L6.3,9.2c-0.5,0.9-0.3,2,0.5,2.7l3.9,2.8l-1.2-2.9c0,0-0.8,0.1-0.6-0.2l2.9-5.2L8.7,5z"/>
<path d="M9.9,15L8,20h2.1l1.7-4.3c0.4-1.1,0.2-2.4-0.7-3.2l-2.4-2.4l-1.4,1.4l2.4,2.4C10,14.2,10.1,14.6,9.9,15z"/>
</svg>
