<?xml version="1.0" encoding="utf-8"?>
<!-- Generator: Adobe Illustrator 21.0.0, SVG Export Plug-In . SVG Version: 6.00 Build 0)  -->
<svg version="1.1" id="Layer_1" xmlns="http://www.w3.org/2000/svg" xmlns:xlink="http://www.w3.org/1999/xlink" x="0px" y="0px"
	 viewBox="0 0 100 100" style="enable-background:new 0 0 100 100;" xml:space="preserve">
<style type="text/css">
	.st0{clip-path:url(#SVGID_2_);}
	.st1{fill:#FFFFFF;}
</style>
<g>
	<defs>
		<rect id="SVGID_1_" width="100" height="100"/>
	</defs>
	<clipPath id="SVGID_2_">
		<use xlink:href="#SVGID_1_"  style="overflow:visible;"/>
	</clipPath>
	<g class="st0">
		<path class="st1" d="M103.1,78.1c0,8.3,0,16.7,0,25c-33.3,0-66.7,0-100,0c0-8.3,0-16.7,0-25c2.7-2.9,5.8-5.6,7.9-8.9
			C14.5,63.6,17.5,57.5,22,49C30.6,61,36.5,70.1,43.3,78.5c3.1,3.8,7.5,7,12.1,8.7c1.3,0.5,7.5-5.9,7-7.9c-1.1-4.1-4.8-8.1-8.3-10.9
			c-8.6-6.8-17.7-12.8-27.7-19.9c28.4-14.9,46.4-5.4,60.1,29.7C91.8,78.1,97.4,78.1,103.1,78.1z"/>
		<path class="st1" d="M3.1,62.5c0-19.8,0-39.6,0-59.4c33.3,0,66.7,0,100,0c0,19.8,0,39.6,0,59.4c-11.4-19.1-24.8-34.6-50-34.6
			S14.5,43.4,3.1,62.5z"/>
		<path d="M3.1,62.5c11.4-19.1,24.8-34.6,50-34.6s38.6,15.5,50,34.6c0,5.2,0,10.4,0,15.6c-5.7,0-11.4,0-16.8,0
			C72.7,43.1,54.7,33.5,26.3,48.4c10,7.1,19.1,13.2,27.7,19.9c3.6,2.8,7.2,6.8,8.3,10.9c0.5,2-5.6,8.4-7,7.9
			c-4.5-1.7-9-4.9-12.1-8.7C36.5,70.1,30.6,61,22,49c-4.6,8.5-7.5,14.6-11.1,20.2c-2.1,3.3-5.2,6-7.9,8.9
			C3.1,72.9,3.1,67.7,3.1,62.5z"/>
	</g>
</g>
</svg>
