<?xml version="1.0" encoding="utf-8"?>
<!-- Generator: Adobe Illustrator 21.0.2, SVG Export Plug-In . SVG Version: 6.00 Build 0)  -->
<svg version="1.1" id="Layer_1" xmlns="http://www.w3.org/2000/svg" xmlns:xlink="http://www.w3.org/1999/xlink" x="0px" y="0px"
	 viewBox="0 0 143.4 200" style="enable-background:new 0 0 143.4 200;" xml:space="preserve">
<g>
	<path d="M132.6,132.8c-0.5-2-1.6-3.9-3.3-5.5c-1.8-1.5-3.9-2.5-6.2-2.8l-36.1-7l10.5,6.9l-16.6,51.8l-9.3-38.4l-9.3,38.4
		l-16.5-51.8l10.5-6.9l-36.1,7c-2.2,0.3-4.4,1.3-6.2,2.8c-1.8,1.5-2.9,3.5-3.3,5.5L0,179.9l20.2,7c6.7,7,25.5,12.1,48,12.6h3.5h3.5
		c22.5-0.5,41.3-5.6,48-12.6l20.2-7L132.6,132.8z"/>
	<polygon points="71.6,122.8 63.3,125.8 71.6,137.8 79.9,125.8 	"/>
	<path d="M87.2,101c0,1.3-1,2.3-2.3,2.3H58.3c-1.3,0-2.3-1-2.3-2.3l0,0c0-1.3,1-2.3,2.3-2.3h26.6C86.1,98.7,87.2,99.7,87.2,101
		L87.2,101z M71.6,18.9c1.3,0,2.3-1,2.3-2.3V1.8c0-1.3-1-2.3-2.3-2.3l0,0c-1.3,0-2.3,1-2.3,2.3v14.8C69.3,17.9,70.3,18.9,71.6,18.9
		L71.6,18.9z M91.5,24.3c1.1,0.6,2.5,0.3,3.1-0.8l7.4-12.8c0.6-1.1,0.3-2.5-0.8-3.1l0,0c-1.1-0.6-2.5-0.3-3.1,0.8l-7.4,12.8
		C90,22.2,90.4,23.6,91.5,24.3L91.5,24.3z M106,38.8c0.6,1.1,2,1.5,3.1,0.8l12.8-7.4c1.1-0.6,1.5-2,0.8-3.1l0,0
		c-0.6-1.1-2.1-1.5-3.1-0.8l-12.7,7.4C105.8,36.3,105.4,37.7,106,38.8L106,38.8z M111.3,58.7c0,1.3,1,2.3,2.3,2.3h14.8
		c1.3,0,2.3-1,2.3-2.3l0,0c0-1.3-1-2.3-2.3-2.3h-14.8C112.4,56.4,111.3,57.4,111.3,58.7L111.3,58.7z M51.7,24.3
		c1.1-0.6,1.5-2.1,0.8-3.1L45.1,8.3c-0.6-1.1-2-1.5-3.1-0.8l0,0c-1.1,0.6-1.5,2-0.8,3.1l7.4,12.8C49.2,24.5,50.6,24.9,51.7,24.3
		L51.7,24.3z M37.2,38.8c0.6-1.1,0.3-2.5-0.8-3.1l-12.8-7.4c-1.1-0.6-2.5-0.3-3.1,0.8l0,0c-0.6,1.1-0.3,2.5,0.8,3.1l12.8,7.4
		C35.1,40.3,36.5,39.9,37.2,38.8L37.2,38.8z M31.8,58.7c0-1.3-1-2.3-2.3-2.3H14.7c-1.3,0-2.3,1-2.3,2.3l0,0c0,1.3,1,2.3,2.3,2.3
		h14.8C30.8,61,31.8,59.9,31.8,58.7L31.8,58.7z M87.2,107.3c0-1.3-1-2.3-2.3-2.3H58.3c-1.3,0-2.3,1-2.3,2.3l0,0c0,1.3,1,2.3,2.3,2.3
		h26.6C86.1,109.6,87.2,108.6,87.2,107.3L87.2,107.3z M63.8,111.3c1.1,3.3,4.2,5.6,7.8,5.6s6.7-2.4,7.8-5.6H63.8z M71.6,58.6
		L71.6,58.6L71.6,58.6c1.6-1.5,3.9-4.3,3.9-6.7c0-2.3-1.8-4.2-3.9-4.2c-2.2,0-3.9,1.9-3.9,4.2C67.6,54.3,70,57.1,71.6,58.6z
		 M69.4,63.5c0.3-0.2,0.5-0.4,0.8-0.5c0.3-0.2,0.5-0.3,0.7-0.5c0.1-0.1,0.4-0.3,0.7-0.5c0.3,0.2,0.6,0.4,0.7,0.5
		c0.2,0.2,0.5,0.3,0.7,0.5c0.3,0.2,0.5,0.4,0.8,0.5c0.6,0.4,1.2,0.7,1.8,1.1h0.1h0.1l0,0l0.1,0.1l0.2,0.1c0.2,0.1,0.3,0.2,0.5,0.3
		c0.3,0.2,0.6,0.3,0.9,0.5c0.6,0.3,1.2,0.6,1.6,0.8c0.4,0.2,0.7,0.3,1,0.5l-4.9,28.2h-7l-4.9-28.2c0.3-0.1,0.6-0.3,1-0.5
		c0.5-0.2,1-0.5,1.6-0.8c0.3-0.2,0.6-0.3,0.9-0.5c0.2-0.1,0.3-0.2,0.5-0.3l0.2-0.1l0.1-0.1l0,0h0.1h0.1
		C68.2,64.3,68.8,63.9,69.4,63.5z M104,58.7c0,9.5-4.1,18.1-10.6,24c0,0-1,0.8-1.4,1.2c-3.1,2.7-4.8,6.8-4.8,11.2H75.6l6-27.4
		c1.3,0.6,3.6,1.5,5.8,1.5c1,0,1.9-0.2,2.7-0.6c1.4-0.7,2.4-1.9,3-3.4c0.5-1.5,0.5-3.2-0.2-4.6c-0.9-2.2-3-3.5-5.2-3.5
		c-0.8,0-1.6,0.2-2.4,0.6c-2.8,1.4-4.3,5.4-4.9,7.4c-0.2-0.1-0.4-0.2-0.6-0.3c-0.4-0.3-0.9-0.6-1.5-0.9c-0.3-0.2-0.6-0.4-0.8-0.6
		c-0.1-0.1-0.3-0.2-0.4-0.3l-0.2-0.1l-0.1-0.1l0,0l0,0l0,0l0,0l0,0h-0.1c-0.6-0.4-1.1-0.8-1.6-1.2c-0.3-0.2-0.5-0.4-0.7-0.6
		c-0.2-0.2-0.5-0.4-0.7-0.5c0,0,0,0-0.1,0c1.7-1.7,4.5-5,4.5-8.5c0-3.8-2.9-6.9-6.5-6.9c-3.6,0-6.5,3.1-6.5,6.9
		c0,3.5,2.8,6.8,4.5,8.5c0,0,0,0-0.1,0c-0.2,0.2-0.4,0.3-0.7,0.5c-0.2,0.2-0.5,0.4-0.7,0.6c-0.5,0.4-1.1,0.8-1.6,1.2h-0.1l0,0l0,0
		l0,0l0,0l-0.1,0.1L66.1,63c-0.1,0.1-0.3,0.2-0.4,0.3c-0.3,0.2-0.6,0.4-0.8,0.6c-0.5,0.3-1,0.6-1.5,0.9c-0.2,0.1-0.4,0.2-0.6,0.3
		c-0.6-2-2.1-6-4.9-7.4c-0.8-0.4-1.5-0.6-2.4-0.6c-2.2,0-4.3,1.4-5.2,3.5c-0.6,1.5-0.7,3.1-0.2,4.6s1.6,2.7,3,3.4
		c0.8,0.4,1.7,0.6,2.7,0.6c2.2,0,4.5-0.9,5.8-1.5l6,27.4H56c0-4.4-1.7-8.5-4.8-11.2c-0.5-0.4-1.4-1.2-1.4-1.2
		c-6.5-5.9-10.6-14.5-10.6-24c0-17.9,14.5-32.4,32.4-32.4S104,40.8,104,58.7z M87.4,67.3c-2.1,0-4.3-0.9-5.3-1.5
		c0.4-1.6,1.7-5.4,4-6.6c0.5-0.3,1.1-0.4,1.6-0.4c1.5,0,3,1,3.6,2.5c0.4,1,0.5,2.2,0.1,3.2c-0.4,1-1.1,1.9-2.1,2.3
		C88.8,67.2,88.1,67.3,87.4,67.3z M61.1,65.8c-1.1,0.5-3.3,1.5-5.3,1.5c-0.8,0-1.4-0.1-2-0.4c-1-0.5-1.7-1.3-2.1-2.3
		c-0.4-1.1-0.3-2.2,0.1-3.2c0.6-1.5,2.1-2.5,3.6-2.5c0.6,0,1.1,0.1,1.6,0.4C59.4,60.4,60.7,64.2,61.1,65.8z"/>
</g>
</svg>
