<?xml version="1.0" encoding="utf-8"?>
<!-- Generator: Adobe Illustrator 21.0.2, SVG Export Plug-In . SVG Version: 6.00 Build 0)  -->
<svg version="1.1" id="Layer_1" xmlns:sketch="http://www.bohemiancoding.com/sketch/ns"
	 xmlns="http://www.w3.org/2000/svg" xmlns:xlink="http://www.w3.org/1999/xlink" x="0px" y="0px" viewBox="0 0 22 19.1"
	 style="enable-background:new 0 0 22 19.1;" xml:space="preserve">
<title></title>
<desc></desc>
<g id="miu">
	<g id="Artboard-1" transform="translate(-539.000000, -335.000000)">
		<g id="slice" transform="translate(215.000000, 119.000000)">
		</g>
		<path id="business-suitcase-glyph" d="M552,344.1h1h8v8.9c0,1.1-1.1,1.1-1.1,1.1h-19.8c0,0-1.1,0-1.1-1.1v-8.9h8h1v1
			c0,0.6,0.4,1,1,1h2c0.6,0,1-0.4,1-1V344.1L552,344.1z M552,343.1h1h8v-3.9c0-1.1-1.1-1.1-1.1-1.1h-19.8c0,0-1.1,0-1.1,1.1v3.9h8h1
			c0-0.6,0.5-1,1-1h2C551.6,342.1,552,342.6,552,343.1L552,343.1z M552.1,336.1h-4v2h-1v-1.8c0-1.3,1.2-1.3,1.2-1.3h3.7
			c0,0,1.2,0,1.2,1.3v1.8h-0.9V336.1z M549,343.1v2h2v-2H549z"/>
	</g>
</g>
</svg>
