<?xml version="1.0" encoding="utf-8"?>
<!-- Generator: Adobe Illustrator 19.2.0, SVG Export Plug-In . SVG Version: 6.00 Build 0)  -->
<svg version="1.1" id="Layer_1" xmlns="http://www.w3.org/2000/svg" xmlns:xlink="http://www.w3.org/1999/xlink" x="0px" y="0px"
	 viewBox="0 0 101.3 101.3" style="enable-background:new 0 0 101.3 101.3;" xml:space="preserve">
<path d="M77.9,98.8H23.4c-4.6,0-8.4-3.8-8.4-8.4V10.8c0-4.6,3.8-8.4,8.4-8.4h39.8c0,0,0,0,0,0h0l0,0c0.7,0,1.2,0.3,1.6,0.8
	l20.6,20.6c0.5,0.4,0.8,1,0.8,1.6l0,0v0c0,0,0,0,0,0v64.9C86.3,95.1,82.5,98.8,77.9,98.8z M65.3,9.5v13.9h13.9L65.3,9.5z M82.1,27.6
	H63.2c-1.2,0-2.1-0.9-2.1-2.1V6.7H23.4c-2.3,0-4.2,1.9-4.2,4.2v79.6c0,2.3,1.9,4.2,4.2,4.2h54.5c2.3,0,4.2-1.9,4.2-4.2V27.6z
	 M69.5,82.1H31.8c-1.2,0-2.1-0.9-2.1-2.1c0-1.2,0.9-2.1,2.1-2.1h37.7c1.2,0,2.1,0.9,2.1,2.1C71.6,81.1,70.7,82.1,69.5,82.1z
	 M69.5,65.3H31.8c-1.2,0-2.1-0.9-2.1-2.1c0-1.2,0.9-2.1,2.1-2.1h37.7c1.2,0,2.1,0.9,2.1,2.1C71.6,64.4,70.7,65.3,69.5,65.3z
	 M69.5,48.6H31.8c-1.2,0-2.1-0.9-2.1-2.1c0-1.2,0.9-2.1,2.1-2.1h37.7c1.2,0,2.1,0.9,2.1,2.1C71.6,47.6,70.7,48.6,69.5,48.6z"/>
</svg>
