<?xml version="1.0" encoding="utf-8"?>
<!-- Generator: Adobe Illustrator 21.0.0, SVG Export Plug-In . SVG Version: 6.00 Build 0)  -->
<svg version="1.1" id="Layer_1" xmlns="http://www.w3.org/2000/svg" xmlns:xlink="http://www.w3.org/1999/xlink" x="0px" y="0px"
	 viewBox="0 0 100 100" style="enable-background:new 0 0 100 100;" xml:space="preserve">
<g>
	<path d="M67.1,80.6c-2.7,0.6-5.3,1.2-8.1,1.9c-0.6-4.1-1.3-8.1-1.9-12c-0.2,0-0.2-0.1-0.3-0.1c-2.1,0.3-2,0.3-1.9,2.4
		c0.2,3.3,0.5,6.5,0.7,10c-3.4,0-6.8,0-10.2,0c0.2-2.8,0.4-5.4,0.6-8c0.1-1.1,0.1-2.1,0.3-3.1c0.1-0.6-0.1-1-0.8-1
		c-0.5,0-1-0.2-1.5-0.3c-0.6,4-1.2,7.9-1.9,12.1c-2.7-0.6-5.4-1.3-8.1-1.9c0.5-3.2,0.9-6.2,1.4-9.2c0.2-1.2,0.3-2.3,0.5-3.5
		c0.1-0.6-0.1-0.9-0.6-1.2c-6.3-4-10.4-9.6-12.4-16.8c-4.4-16,6.1-32.5,22.4-35.4c14.8-2.6,28.8,6.3,32.7,20.8
		c3.2,11.9-1.7,24.5-12.2,31.3c-0.7,0.4-0.9,0.8-0.8,1.7C65.9,72.2,66.4,76.3,67.1,80.6z M68.4,44c0-4-3.2-7.1-7.1-7.2
		c-4,0-7.2,3.2-7.2,7.1c0,4,3.2,7.3,7.1,7.3C65.2,51.2,68.4,48,68.4,44z M32.6,44c0,3.9,3.2,7.2,7.1,7.2c3.9,0,7.2-3.2,7.2-7.1
		c0-4-3.2-7.2-7.1-7.2C35.8,36.8,32.7,39.9,32.6,44z M55.9,61.6c-1.8-3.6-3.6-7.1-5.4-10.8c-1.9,3.7-3.6,7.2-5.4,10.8
		C48.8,61.6,52.3,61.6,55.9,61.6z"/>
	<path d="M18.6,71.9c2.3-1.6,4.6-3.2,6.8-4.8c1.1-0.7,2.2-1,3.4-0.5c1.2,0.5,2,1.4,2.2,2.7c0.2,1.4-0.3,2.6-1.5,3.5
		c-2,1.4-4,2.8-6,4.2c-0.3,0.2-0.5,0.4-0.6,0.5c0.2,1.3,0.6,2.4,0.6,3.6c0,2.7-2.4,5-5.2,5c-2.8,0-5.2-2.3-5.3-5
		c0-0.7-0.1-1-0.8-1.3c-2-0.7-3.3-2.7-3.3-4.8c0-2.1,1.3-4.1,3.2-4.9c2-0.8,4.2-0.4,5.8,1.1C18.1,71.3,18.3,71.6,18.6,71.9z"/>
	<path d="M88.1,80.1c0.1,2.8-1,4.8-3.8,5.7c-2.2,0.7-4.1,0.1-5.5-1.6c-1.7-2-1.7-4.2-0.4-6.6c-0.3-0.2-0.5-0.4-0.8-0.6
		c-1.9-1.4-3.9-2.7-5.8-4.1c-1.8-1.3-2.3-3.4-1.2-5.1c1.2-1.7,3.3-2,5.2-0.7c2.2,1.5,4.4,3.1,6.6,4.6c1.8-2.1,4.1-2.9,6.7-1.7
		c2.1,0.9,3.1,2.6,3.1,4.9C92.1,77.6,90.6,79.3,88.1,80.1z"/>
	<path d="M87.2,32.9c-3.1,1.6-4.7,1.6-5.9-0.2c-0.7-1-0.9-2.2-0.4-3.3c0.5-0.9,1.3-1.7,2.1-2.7c-0.6-1.1-1-2.4-0.6-3.9
		c0.6-2.6,2.9-4.4,5.5-4.2c2.7,0.2,4.8,2.2,5,4.9c0,0.9,0.3,1.2,1.1,1.6c2,0.9,3.1,2.6,3,4.9c-0.1,2.3-1.2,3.9-3.3,4.7
		c-2.1,0.9-4,0.4-5.7-1.1C87.7,33.4,87.5,33.2,87.2,32.9z"/>
	<path d="M18,26.9c2.5,2.3,3.1,3.9,1.9,5.7c-0.7,1-1.7,1.7-2.9,1.5c-1.1-0.1-2.1-0.7-3.2-1.1c-0.7,0.9-1.8,1.7-3.1,2
		c-2.7,0.6-5.4-0.9-6.2-3.6c-0.8-2.6,0.4-5.4,3-6.4c0.7-0.3,0.9-0.6,0.9-1.3c0-2.2,1.4-4,3.5-4.7c2.2-0.8,4.1-0.3,5.7,1.4
		c1.5,1.6,1.8,3.6,1,5.7C18.3,26.3,18.1,26.6,18,26.9z"/>
</g>
</svg>
