<?xml version="1.0" encoding="utf-8"?>
<!-- Generator: Adobe Illustrator 19.2.0, SVG Export Plug-In . SVG Version: 6.00 Build 0)  -->
<svg version="1.1" id="Layer_1" xmlns="http://www.w3.org/2000/svg" xmlns:xlink="http://www.w3.org/1999/xlink" x="0px" y="0px"
	 viewBox="0 0 100.1 66" style="enable-background:new 0 0 100.1 66;" xml:space="preserve">
<style type="text/css">
	.st0{fill:#010101;}
</style>
<path class="st0" d="M0.1,41.4c11.4-19.1,24.8-34.6,50-34.6s38.6,15.5,50,34.6c0,5.2,0,10.4,0,15.6c-5.7,0-11.4,0-16.8,0
	c-13.6-35-31.6-44.6-60-29.7c10,7.1,19.1,13.2,27.7,19.9c3.6,2.8,7.2,6.8,8.3,10.9c0.5,2-5.6,8.4-7,7.9c-4.5-1.7-9-4.9-12.1-8.7
	C33.5,49,27.6,39.9,19,27.9c-4.6,8.5-7.5,14.6-11.1,20.2c-2.1,3.3-5.2,6-7.9,8.9C0.1,51.8,0.1,46.6,0.1,41.4z"/>
</svg>
