<?xml version="1.0" encoding="utf-8"?>
<!-- Generator: Adobe Illustrator 21.0.2, SVG Export Plug-In . SVG Version: 6.00 Build 0)  -->
<svg version="1.1" id="Layer_1" xmlns="http://www.w3.org/2000/svg" xmlns:xlink="http://www.w3.org/1999/xlink" x="0px" y="0px"
	 viewBox="0 0 200 200" style="enable-background:new 0 0 200 200;" xml:space="preserve">
<style type="text/css">
	.st0{stroke:#FFFFFF;stroke-miterlimit:10;}
</style>
<g>
	<path class="st0" d="M161.7,132.8c-0.5-2-1.6-3.9-3.3-5.5c-1.8-1.5-3.9-2.5-6.2-2.8l-36.1-7l10.5,6.9L110,176.2l-9.3-38.4
		l-9.3,38.4l-16.5-51.8l10.5-6.9l-36.1,7c-2.2,0.3-4.4,1.3-6.2,2.8c-1.8,1.5-2.9,3.5-3.3,5.5l-10.7,47.1l20.2,7
		c6.7,7,25.5,12.1,48,12.6h3.5h3.5c22.5-0.5,41.3-5.6,48-12.6l20.2-7L161.7,132.8z"/>
	<polygon points="100.7,122.8 92.4,125.8 100.7,137.8 109,125.8 	"/>
	<path class="st0" d="M116.3,101c0,1.3-1,2.3-2.3,2.3H87.4c-1.3,0-2.3-1-2.3-2.3l0,0c0-1.3,1-2.3,2.3-2.3H114
		C115.2,98.7,116.3,99.7,116.3,101L116.3,101z M100.7,18.9c1.3,0,2.3-1,2.3-2.3V1.8c0-1.3-1-2.3-2.3-2.3l0,0c-1.3,0-2.3,1-2.3,2.3
		v14.8C98.4,17.9,99.4,18.9,100.7,18.9L100.7,18.9z M120.6,24.3c1.1,0.6,2.5,0.3,3.1-0.8l7.4-12.8c0.6-1.1,0.3-2.5-0.8-3.1l0,0
		c-1.1-0.6-2.5-0.3-3.1,0.8l-7.4,12.8C119.1,22.2,119.5,23.6,120.6,24.3L120.6,24.3z M135.1,38.8c0.6,1.1,2,1.5,3.1,0.8l12.8-7.4
		c1.1-0.6,1.5-2,0.8-3.1l0,0c-0.6-1.1-2.1-1.5-3.1-0.8L136,35.7C134.9,36.3,134.5,37.7,135.1,38.8L135.1,38.8z M140.4,58.7
		c0,1.3,1,2.3,2.3,2.3h14.8c1.3,0,2.3-1,2.3-2.3l0,0c0-1.3-1-2.3-2.3-2.3h-14.8C141.5,56.4,140.4,57.4,140.4,58.7L140.4,58.7z
		 M80.8,24.3c1.1-0.6,1.5-2.1,0.8-3.1L74.2,8.3c-0.6-1.1-2-1.5-3.1-0.8l0,0c-1.1,0.6-1.5,2-0.8,3.1l7.4,12.8
		C78.3,24.5,79.7,24.9,80.8,24.3L80.8,24.3z M66.3,38.8c0.6-1.1,0.3-2.5-0.8-3.1l-12.8-7.4c-1.1-0.6-2.5-0.3-3.1,0.8l0,0
		c-0.6,1.1-0.3,2.5,0.8,3.1l12.8,7.4C64.2,40.3,65.6,39.9,66.3,38.8L66.3,38.8z M60.9,58.7c0-1.3-1-2.3-2.3-2.3H43.8
		c-1.3,0-2.3,1-2.3,2.3l0,0c0,1.3,1,2.3,2.3,2.3h14.8C59.9,61,60.9,59.9,60.9,58.7L60.9,58.7z M116.3,107.3c0-1.3-1-2.3-2.3-2.3
		H87.4c-1.3,0-2.3,1-2.3,2.3l0,0c0,1.3,1,2.3,2.3,2.3H114C115.2,109.6,116.3,108.6,116.3,107.3L116.3,107.3z M92.9,111.3
		c1.1,3.3,4.2,5.6,7.8,5.6c3.6,0,6.7-2.4,7.8-5.6H92.9z M100.7,58.6L100.7,58.6L100.7,58.6c1.6-1.5,3.9-4.3,3.9-6.7
		c0-2.3-1.8-4.2-3.9-4.2c-2.2,0-3.9,1.9-3.9,4.2C96.7,54.3,99.1,57.1,100.7,58.6z M98.5,63.5c0.3-0.2,0.5-0.4,0.8-0.5
		c0.3-0.2,0.5-0.3,0.7-0.5c0.1-0.1,0.4-0.3,0.7-0.5c0.3,0.2,0.6,0.4,0.7,0.5c0.2,0.2,0.5,0.3,0.7,0.5c0.3,0.2,0.5,0.4,0.8,0.5
		c0.6,0.4,1.2,0.7,1.8,1.1h0.1h0.1l0,0l0.1,0.1l0.2,0.1c0.2,0.1,0.3,0.2,0.5,0.3c0.3,0.2,0.6,0.3,0.9,0.5c0.6,0.3,1.2,0.6,1.6,0.8
		c0.4,0.2,0.7,0.3,1,0.5l-4.9,28.2h-7l-4.9-28.2c0.3-0.1,0.6-0.3,1-0.5c0.5-0.2,1-0.5,1.6-0.8c0.3-0.2,0.6-0.3,0.9-0.5
		c0.2-0.1,0.3-0.2,0.5-0.3l0.2-0.1l0.1-0.1l0,0h0.1h0.1C97.3,64.3,97.9,63.9,98.5,63.5z M133.1,58.7c0,9.5-4.1,18.1-10.6,24
		c0,0-1,0.8-1.4,1.2c-3.1,2.7-4.8,6.8-4.8,11.2h-11.6l6-27.4c1.3,0.6,3.6,1.5,5.8,1.5c1,0,1.9-0.2,2.7-0.6c1.4-0.7,2.4-1.9,3-3.4
		c0.5-1.5,0.5-3.2-0.2-4.6c-0.9-2.2-3-3.5-5.2-3.5c-0.8,0-1.6,0.2-2.4,0.6c-2.8,1.4-4.3,5.4-4.9,7.4c-0.2-0.1-0.4-0.2-0.6-0.3
		c-0.4-0.3-0.9-0.6-1.5-0.9c-0.3-0.2-0.6-0.4-0.8-0.6c-0.1-0.1-0.3-0.2-0.4-0.3l-0.2-0.1l-0.1-0.1l0,0l0,0l0,0l0,0l0,0h-0.1
		c-0.6-0.4-1.1-0.8-1.6-1.2c-0.3-0.2-0.5-0.4-0.7-0.6c-0.2-0.2-0.5-0.4-0.7-0.5c0,0,0,0-0.1,0c1.7-1.7,4.5-5,4.5-8.5
		c0-3.8-2.9-6.9-6.5-6.9s-6.5,3.1-6.5,6.9c0,3.5,2.8,6.8,4.5,8.5c0,0,0,0-0.1,0c-0.2,0.2-0.4,0.3-0.7,0.5c-0.2,0.2-0.5,0.4-0.7,0.6
		c-0.5,0.4-1.1,0.8-1.6,1.2h-0.1l0,0l0,0l0,0l0,0l-0.1,0.1L95.2,63c-0.1,0.1-0.3,0.2-0.4,0.3c-0.3,0.2-0.6,0.4-0.8,0.6
		c-0.5,0.3-1,0.6-1.5,0.9c-0.2,0.1-0.4,0.2-0.6,0.3c-0.6-2-2.1-6-4.9-7.4c-0.8-0.4-1.5-0.6-2.4-0.6c-2.2,0-4.3,1.4-5.2,3.5
		c-0.6,1.5-0.7,3.1-0.2,4.6s1.6,2.7,3,3.4c0.8,0.4,1.7,0.6,2.7,0.6c2.2,0,4.5-0.9,5.8-1.5l6,27.4H85.1c0-4.4-1.7-8.5-4.8-11.2
		c-0.5-0.4-1.4-1.2-1.4-1.2c-6.5-5.9-10.6-14.5-10.6-24c0-17.9,14.5-32.4,32.4-32.4S133.1,40.8,133.1,58.7z M116.5,67.3
		c-2.1,0-4.3-0.9-5.3-1.5c0.4-1.6,1.7-5.4,4-6.6c0.5-0.3,1.1-0.4,1.6-0.4c1.5,0,3,1,3.6,2.5c0.4,1,0.5,2.2,0.1,3.2
		c-0.4,1-1.1,1.9-2.1,2.3C117.9,67.2,117.2,67.3,116.5,67.3z M90.2,65.8c-1.1,0.5-3.3,1.5-5.3,1.5c-0.8,0-1.4-0.1-2-0.4
		c-1-0.5-1.7-1.3-2.1-2.3c-0.4-1.1-0.3-2.2,0.1-3.2c0.6-1.5,2.1-2.5,3.6-2.5c0.6,0,1.1,0.1,1.6,0.4C88.5,60.4,89.8,64.2,90.2,65.8z"
		/>
</g>
</svg>
