<?xml version="1.0" encoding="utf-8"?>
<!-- Generator: Adobe Illustrator 19.2.0, SVG Export Plug-In . SVG Version: 6.00 Build 0)  -->
<svg version="1.1" id="Layer_1" xmlns:sketch="http://www.bohemiancoding.com/sketch/ns"
	 xmlns="http://www.w3.org/2000/svg" xmlns:xlink="http://www.w3.org/1999/xlink" x="0px" y="0px" viewBox="0 0 100.8 100.8"
	 style="enable-background:new 0 0 100.8 100.8;" xml:space="preserve">
<title></title>
<desc></desc>
<g id="miu">
	<g id="Artboard-1" transform="translate(-539.000000, -335.000000)">
		<g id="slice" transform="translate(215.000000, 119.000000)">
		</g>
		<path id="business-suitcase-glyph" d="M598.5,382.6h4.7h36.5v40.7c0,5.1-5,5.1-5,5.1h-90.6c0,0-5,0-5-5.1v-40.7h36.6h4.6v4.5
			c0,2.6,2,4.6,4.6,4.6h9.1c2.6,0,4.6-2,4.6-4.6V382.6L598.5,382.6z M598.5,378h4.6h36.6v-17.7c0-5.2-5-5.2-5-5.2h-90.6
			c0,0-5,0-5,5.2V378h36.6h4.6c0-2.6,2.1-4.6,4.6-4.6h9.1C596.5,373.5,598.5,375.5,598.5,378L598.5,378z M598.8,345.9h-18.5v9.2
			h-4.6v-8c0-5.7,5.3-5.7,5.3-5.7h16.9c0,0,5.3,0,5.3,5.7v8h-4.3V345.9z M584.8,378v9.2h9.2V378H584.8z"/>
	</g>
</g>
</svg>
