<?xml version="1.0" encoding="utf-8"?>
<!-- Generator: Adobe Illustrator 21.0.2, SVG Export Plug-In . SVG Version: 6.00 Build 0)  -->
<svg version="1.1" id="Layer_1" xmlns="http://www.w3.org/2000/svg" xmlns:xlink="http://www.w3.org/1999/xlink" x="0px" y="0px"
	 viewBox="0 0 123 112" style="enable-background:new 0 0 123 112;" xml:space="preserve">
<style type="text/css">
	.st0{fill:#FFFFFF;}
</style>
<path class="st0" d="M109.3,27.3c-6.6,0-12,5.4-12,12c0,1.7,0.4,3.3,1,4.7l-17,7.3L67.1,25.8c3.7-2.1,6.2-5.9,6.2-10.4
	c0-6.6-5.4-12-12-12s-12,5.4-12,12c0,4.5,2.5,8.4,6.2,10.4L41.3,51.3l-17-7.3c0.6-1.5,1-3,1-4.7c0-6.6-5.4-12-12-12s-12,5.4-12,12
	s5.4,12,12,12c0.9,0,1.8-0.1,2.7-0.3l9.3,40.3v8c0,4.4,3.6,8,8,8h56c4.4,0,8-3.6,8-8v-8l9.3-40.3c0.9,0.2,1.8,0.3,2.7,0.3
	c6.6,0,12-5.4,12-12S116,27.3,109.3,27.3z M61.3,11.3c2.2,0,4,1.8,4,4s-1.8,4-4,4s-4-1.8-4-4S59.1,11.3,61.3,11.3z M9.3,39.3
	c0-2.2,1.8-4,4-4s4,1.8,4,4s-1.8,4-4,4S9.3,41.5,9.3,39.3z M89.3,99.3h-56v-8h56V99.3z M91,83.3H31.7l-7-30.4l13.5,5.8
	c1,0.4,2.1,0.6,3.1,0.6c2.8,0,5.5-1.5,7-4.1l13-23.4l13,23.4c1.4,2.6,4.2,4.1,7,4.1c1.1,0,2.1-0.2,3.1-0.6L98,52.9L91,83.3z
	 M109.3,43.3c-2.2,0-4-1.8-4-4s1.8-4,4-4s4,1.8,4,4S111.5,43.3,109.3,43.3z"/>
</svg>
