<svg xmlns="http://www.w3.org/2000/svg" viewBox="0 0 256 176.59"><defs><style>.cls-1{fill:#fff;}</style></defs><title>Swe</title><g id="Layer_0_Image" data-name="Layer 0 Image"><path class="cls-1" d="M256,6.18c-2,9-3.68,18.19-6.13,27.12-4.23,15.46-10.54,30-23.7,40.07C220.08,78,212.82,81.27,206,85a70.1,70.1,0,0,1-7.38,3c1.93,6.48,3.55,12.71,5.7,18.75,1.2,3.36.08,5.18-2.79,6.14-11,3.66-21.79,8.54-33.09,10.48-30.26,5.18-60.68,4.94-90.69-2.28-8-1.92-15.54-5.7-23.26-8.69-2.64-1-3.79-2.56-2.65-5.75,2.12-5.92,3.72-12,5.68-18.52-1.36-.59-3-1.41-4.64-2C28.44,77.86,13.73,60.58,7,36.16,4.61,27.37,3,18.34,1,9.43.8,8.32.38,7.26,0,6.18v-4c2.72-3.51,5-2.45,6.79.82,1.49,2.77,2.61,5.75,3.92,8.63,9.86,21.58,24,38.35,48.71,43.17,5.22,1,10.46,2,15.75,2.61a9.55,9.55,0,0,0,5.7-1.56c4.85-3.12,9.48-6.6,14.87-10.42l11.48,56.51,1-.15q0-2.73,0-5.45c0-19.65.13-39.31-.1-59,0-4.27,1.43-6.37,5.48-6.41q14.42-.16,28.85,0c4.13,0,5.45,2.28,5.4,6.48-.22,19.82-.1,39.64-.1,59.46q0,2.43,0,4.85h1L160,45.74c3.58,2.18,7,3.35,9.12,5.72,6.09,6.89,13.18,6,21.19,4.75,23.17-3.53,40-15.51,50.76-36.13,2.85-5.45,5.22-11.14,8-16.63,2.06-4.07,3.75-4.28,7-1.27Z" transform="translate(-0.04)"/><path class="cls-1" d="M206.86,123.9c0,8.78.36,17.78-.24,26.7-.16,2.39-2.88,5.17-5.13,6.75-11.49,8-24.62,12.34-38.16,15.32a160.48,160.48,0,0,1-94.56-7.41c-1.86-.72-3.64-1.63-5.5-2.36-10.16-4-16.13-10.35-14.22-22.34.89-5.62.15-11.49.15-17.11C102,142.64,154,142.86,206.86,123.9Zm-69,33.1a9.85,9.85,0,1,0-9.91,9.75A9.93,9.93,0,0,0,137.9,157Zm-40.85-2.74c0-5.21-3.57-9.38-8.2-9.5-4.78-.12-8.77,4.3-8.67,9.6.1,5.11,4,9.3,8.52,9.27S97,159.45,97.05,154.26Zm78.85.17c.14-5.05-3.55-9.44-8.11-9.66s-8.53,3.73-8.75,8.93c-.24,5.39,3.48,9.86,8.27,9.93C171.88,163.7,175.76,159.54,175.9,154.43ZM65,143.25c0-5.12-2.52-9.09-5.8-9.18s-6,3.9-6.09,8.95c-.1,5.23,2.68,9.51,6.11,9.41S65.05,148.41,65,143.25Zm126,.11c0,5.17,2.55,9,5.9,9.07s5.94-4,6-9c.06-5.22-2.79-9.51-6.2-9.33C193.5,134.23,191,138.28,191,143.36Z" transform="translate(-0.04)"/></g></svg>