<?xml version="1.0" standalone="no"?>
<!DOCTYPE svg PUBLIC "-//W3C//DTD SVG 20010904//EN"
 "http://www.w3.org/TR/2001/REC-SVG-20010904/DTD/svg10.dtd">
<svg version="1.0" xmlns="http://www.w3.org/2000/svg"
 width="762.000000pt" height="762.000000pt" viewBox="0 0 762.000000 762.000000"
 preserveAspectRatio="xMidYMid meet">
<metadata>
Created by potrace 1.11, written by Peter Selinger 2001-2013
</metadata>
<g transform="translate(0.000000,762.000000) scale(0.100000,-0.100000)"
fill="#000000" stroke="none">
<path d="M3674 7577 c-21 -17 -77 -65 -124 -107 -101 -89 -96 -85 -151 -135
-47 -43 -332 -300 -388 -350 -19 -16 -49 -43 -66 -60 -18 -16 -63 -57 -100
-90 -38 -33 -80 -71 -94 -85 -15 -14 -69 -63 -121 -110 -52 -47 -100 -89 -106
-95 -6 -5 -42 -38 -80 -71 -38 -34 -82 -74 -99 -89 -16 -15 -50 -46 -75 -68
-25 -23 -68 -61 -95 -86 -28 -25 -90 -82 -139 -126 -49 -44 -99 -89 -110 -100
-12 -11 -62 -56 -111 -100 -50 -44 -92 -82 -95 -85 -3 -3 -50 -46 -105 -95
-55 -50 -126 -114 -157 -144 -31 -29 -66 -60 -77 -68 -12 -8 -31 -33 -42 -55
l-21 -41 44 6 c81 13 113 18 163 27 28 5 66 12 85 15 19 3 60 10 90 15 30 5
71 12 90 15 19 3 60 10 90 15 30 5 69 12 85 14 24 4 208 35 420 72 17 3 41 7
55 9 27 4 259 43 300 50 14 3 49 9 79 15 30 5 55 9 57 7 2 -1 -4 -16 -11 -32
-59 -125 -373 -807 -413 -895 -11 -25 -87 -193 -170 -375 -82 -181 -162 -357
-177 -390 -44 -97 -76 -167 -195 -420 -62 -132 -130 -279 -151 -327 -21 -48
-49 -109 -63 -135 -38 -76 -40 -111 -9 -205 15 -46 27 -85 28 -88 1 -3 5 -12
8 -20 38 -88 768 -2304 768 -2330 0 -19 -2 -48 -5 -65 -2 -16 -8 -54 -11 -84
-4 -30 -8 -61 -10 -70 -13 -71 -16 -155 -5 -180 24 -59 -64 -56 1665 -56 875
0 1604 3 1620 8 17 5 41 14 54 20 25 12 25 17 7 182 -3 22 -7 69 -10 105 -4
36 -8 81 -11 100 -2 19 -7 64 -10 100 -4 36 -9 83 -11 105 -3 22 -7 60 -9 85
-5 61 -13 136 -20 190 -5 48 -11 101 -20 190 -3 30 -8 66 -10 80 -2 14 -7 54
-10 90 -4 36 -8 72 -10 80 -1 8 -6 42 -9 75 -11 97 -37 308 -41 335 -2 14 -6
50 -9 80 -4 30 -8 64 -10 75 -2 12 -7 51 -10 87 -4 37 -9 76 -11 87 -2 11 -6
46 -10 78 -3 32 -8 69 -10 83 -3 23 -6 53 -21 185 -2 22 -6 51 -9 65 -2 14 -7
54 -10 90 -3 36 -8 76 -10 90 -3 14 -7 43 -9 65 -3 22 -10 85 -16 140 -11 100
-16 139 -25 205 -3 19 -7 60 -10 90 -3 30 -7 69 -9 85 -2 17 -7 59 -11 95 -4
36 -8 72 -10 80 -1 8 -6 47 -9 85 -4 39 -9 81 -11 95 -2 14 -7 52 -10 85 -3
33 -8 71 -10 85 -2 14 -6 52 -10 85 -3 33 -8 78 -10 100 -6 44 -13 118 -20
180 -6 61 -15 146 -20 185 -2 19 -7 58 -10 85 -11 103 -16 141 -20 170 -2 17
-7 53 -10 80 -3 28 -8 66 -11 85 -3 19 -7 54 -9 78 -3 23 -7 55 -9 70 -9 52
-26 187 -31 249 -4 35 -8 71 -10 81 -2 11 -6 55 -10 98 -4 43 -8 90 -10 104
-5 38 -15 128 -20 195 -4 58 -9 100 -20 195 -2 25 -7 72 -10 105 -13 153 -38
194 -246 425 -37 41 -77 86 -89 100 -12 14 -40 45 -63 70 -34 36 -201 220
-242 266 -51 57 -166 184 -190 210 -16 17 -64 69 -105 115 -41 46 -102 113
-135 149 -33 36 -91 101 -130 145 -192 218 -208 228 -281 172z"/>
</g>
</svg>
