<?xml version="1.0" encoding="utf-8"?>
<!-- Generator: Adobe Illustrator 21.0.0, SVG Export Plug-In . SVG Version: 6.00 Build 0)  -->
<svg version="1.1" id="Layer_1" xmlns="http://www.w3.org/2000/svg" xmlns:xlink="http://www.w3.org/1999/xlink" x="0px" y="0px"
	 viewBox="0 0 200 200" style="enable-background:new 0 0 200 200;" xml:space="preserve">
<g>
	<path d="M137.6,28.7H126c-1.5,0-2.5,0.3-3.1,0.9c-0.5,0.6-0.8,1.6-0.8,3.2v9c0,1.6,0.3,2.6,0.8,3.2c0.5,0.6,1.6,0.9,3.1,0.9h11.6
		c1.5,0,2.6-0.3,3.1-0.9c0.5-0.6,0.8-1.6,0.8-3.2v-9c0-1.6-0.3-2.6-0.8-3.2C140.2,29,139.2,28.7,137.6,28.7z M138,42.8h-12.2V31.7
		H138V42.8z"/>
	<path d="M112,28.7h-11.6c-1.5,0-2.5,0.3-3.1,0.9c-0.5,0.6-0.8,1.6-0.8,3.2v9c0,1.6,0.3,2.6,0.8,3.2s1.6,0.9,3.1,0.9H112
		c1.5,0,2.6-0.3,3.1-0.9c0.5-0.6,0.8-1.6,0.8-3.2v-9c0-1.6-0.3-2.6-0.8-3.2C114.5,29,113.5,28.7,112,28.7z M112.3,42.8h-12.2V31.7
		h12.2V42.8z"/>
	<path d="M180.2,0H19.8C13.6,0,8.5,5.1,8.5,11.3v177.3c0,6.2,5.1,11.3,11.3,11.3h160.4c6.2,0,11.3-5.1,11.3-11.3V11.3
		C191.5,5.1,186.4,0,180.2,0z M52.6,177.7c0,2.9-2.4,5.3-5.4,5.3H30.8c-2.9,0-5.4-2.4-5.4-5.3v-16.4c0-2.9,2.4-5.4,5.4-5.4h16.4
		c2.9,0,5.4,2.4,5.4,5.4C52.6,161.3,52.6,177.7,52.6,177.7z M52.6,137c0,2.9-2.4,5.3-5.4,5.3H30.8c-2.9,0-5.4-2.4-5.4-5.3v-16.4
		c0-2.9,2.4-5.3,5.4-5.3h16.4c2.9,0,5.4,2.4,5.4,5.3C52.6,120.6,52.6,137,52.6,137z M52.6,96.4c0,2.9-2.4,5.3-5.4,5.3H30.8
		c-2.9,0-5.4-2.4-5.4-5.3V80c0-2.9,2.4-5.3,5.4-5.3h16.4c2.9,0,5.4,2.4,5.4,5.3C52.6,80,52.6,96.4,52.6,96.4z M93.2,177.7
		c0,2.9-2.4,5.3-5.3,5.3H71.5c-2.9,0-5.3-2.4-5.3-5.3v-16.4c0-2.9,2.4-5.4,5.3-5.4h16.4c2.9,0,5.3,2.4,5.3,5.4L93.2,177.7
		L93.2,177.7z M93.2,137c0,2.9-2.4,5.3-5.3,5.3H71.5c-2.9,0-5.3-2.4-5.3-5.3v-16.4c0-2.9,2.4-5.3,5.3-5.3h16.4
		c2.9,0,5.3,2.4,5.3,5.3L93.2,137L93.2,137z M93.2,96.4c0,2.9-2.4,5.3-5.3,5.3H71.5c-2.9,0-5.3-2.4-5.3-5.3V80
		c0-2.9,2.4-5.3,5.3-5.3h16.4c2.9,0,5.3,2.4,5.3,5.3L93.2,96.4L93.2,96.4z M133.9,177.7c0,2.9-2.4,5.3-5.3,5.3h-16.4
		c-2.9,0-5.3-2.4-5.3-5.3v-16.4c0-2.9,2.4-5.4,5.3-5.4h16.4c2.9,0,5.3,2.4,5.3,5.4V177.7z M133.9,137c0,2.9-2.4,5.3-5.3,5.3h-16.4
		c-2.9,0-5.3-2.4-5.3-5.3v-16.4c0-2.9,2.4-5.3,5.3-5.3h16.4c2.9,0,5.3,2.4,5.3,5.3V137z M133.9,96.4c0,2.9-2.4,5.3-5.3,5.3h-16.4
		c-2.9,0-5.3-2.4-5.3-5.3V80c0-2.9,2.4-5.3,5.3-5.3h16.4c2.9,0,5.3,2.4,5.3,5.3V96.4z M174.5,177.7c0,2.9-2.4,5.3-5.4,5.3h-16.4
		c-2.9,0-5.3-2.4-5.3-5.3v-57c0-2.9,2.4-5.3,5.3-5.3h16.4c2.9,0,5.4,2.4,5.4,5.3V177.7z M174.5,96.4c0,2.9-2.4,5.3-5.4,5.3h-16.4
		c-2.9,0-5.3-2.4-5.3-5.3V80c0-2.9,2.4-5.3,5.3-5.3h16.4c2.9,0,5.4,2.4,5.4,5.3V96.4z M174.5,52.3c0,2.9-2.4,5.3-5.4,5.3H30.8
		c-2.9,0-5.4-2.4-5.4-5.3v-30c0-2.9,2.4-5.3,5.4-5.3h138.3c2.9,0,5.4,2.4,5.4,5.3V52.3z"/>
	<path d="M163.3,28.7h-11.6c-1.5,0-2.5,0.3-3.1,0.9c-0.5,0.6-0.8,1.6-0.8,3.2v9c0,1.6,0.3,2.6,0.8,3.2c0.5,0.6,1.6,0.9,3.1,0.9h11.6
		c1.5,0,2.6-0.3,3.1-0.9c0.5-0.6,0.8-1.6,0.8-3.2v-9c0-1.6-0.3-2.6-0.8-3.2C165.9,29,164.8,28.7,163.3,28.7z M163.6,42.8h-12.2V31.7
		h12.2L163.6,42.8L163.6,42.8z"/>
</g>
</svg>
