<?xml version="1.0" encoding="utf-8"?>
<!-- Generator: Adobe Illustrator 19.2.0, SVG Export Plug-In . SVG Version: 6.00 Build 0)  -->
<svg version="1.1" id="Layer_1" xmlns="http://www.w3.org/2000/svg" xmlns:xlink="http://www.w3.org/1999/xlink" x="0px" y="0px"
	 viewBox="0 0 52.3 50.8" style="enable-background:new 0 0 52.3 50.8;" xml:space="preserve">
<g>
	<path d="M50,22.1h-7.5v-7.5c0-0.6-0.5-1-1-1h-2.1c-0.6,0-1,0.5-1,1v7.5h-7.5c-0.6,0-1,0.5-1,1v2.1c0,0.6,0.5,1,1,1h7.5v7.5
		c0,0.6,0.5,1,1,1h2.1c0.6,0,1-0.5,1-1v-7.5H50c0.6,0,1-0.5,1-1v-2.1C51.1,22.6,50.6,22.1,50,22.1z"/>
	<path d="M24.8,28.7c-1.6-1.1-3-2.8-3-3.3c0-0.9,0.1-1.4,2.1-3c2.7-2.1,4.1-4.8,4.1-7.7c0-2.6-0.8-5-2.2-6.6h1.1
		c0.2,0,0.4-0.1,0.6-0.2l3-2.1c0.4-0.3,0.5-0.7,0.4-1.2c-0.1-0.4-0.5-0.7-1-0.7H16.6c-1.4,0-2.9,0.3-4.4,0.8
		c-4.8,1.7-8.2,5.8-8.2,10c0,6,4.6,10.5,10.8,10.6c-0.1,0.5-0.2,0.9-0.2,1.4c0,0.9,0.2,1.8,0.7,2.6c-0.1,0-0.1,0-0.2,0
		c-5.9,0-11.2,2.9-13.2,7.2c-0.5,1.1-0.8,2.2-0.8,3.4C1.2,41,1.5,42,2.1,43c1.3,2.3,4,4,7.7,5c1.9,0.5,3.9,0.7,6.1,0.7
		c1.9,0,3.7-0.2,5.4-0.7c5.2-1.5,8.6-5.4,8.6-9.8C29.8,33.9,28.5,31.3,24.8,28.7z M8.1,38.5c0-3.1,3.9-5.8,8.4-5.8h0.1
		c1,0,1.9,0.2,2.8,0.4c0.3,0.2,0.6,0.4,0.9,0.6c2.1,1.4,3.5,2.4,3.8,3.9c0.1,0.4,0.1,0.8,0.1,1.1c0,3.9-2.9,5.8-8.6,5.8
		C11.5,44.5,8.1,41.8,8.1,38.5z M12.2,9.1c0.7-0.8,1.6-1.2,2.7-1.2l0.1,0c2.9,0.1,5.7,3.3,6.2,7.3c0.3,2.2-0.2,4.3-1.3,5.5
		c-0.7,0.8-1.6,1.2-2.7,1.2c0,0,0,0,0,0h0c-2.9-0.1-5.7-3.5-6.2-7.4C10.6,12.3,11.1,10.3,12.2,9.1z"/>
</g>
</svg>
